<?xml version="1.0" encoding="utf-8"?>
<!-- Generator: Adobe Illustrator 25.2.0, SVG Export Plug-In . SVG Version: 6.00 Build 0)  -->
<svg version="1.1" id="レイヤー_1" xmlns="http://www.w3.org/2000/svg" xmlns:xlink="http://www.w3.org/1999/xlink" x="0px"
	 y="0px" viewBox="0 0 882.8 147.9" style="enable-background:new 0 0 882.8 147.9;" xml:space="preserve">
<style type="text/css">
	.st0{fill:#FFFFFF;}
	.st1{fill:#AEDEF7;}
	.st2{fill:#FDECCE;}
	.st3{fill:#FDEED1;}
	.st4{fill:#FFF5E3;}
	.st5{fill:#FFF8EC;}
	.st6{fill:#FFFCF6;}
	.st7{fill:#F09DC1;}
	.st8{fill:#F5C0D7;}
	.st9{fill:#704335;}
	.st10{fill:#785230;}
	.st11{fill:#4EB0E4;}
	.st12{fill:#9FD0F0;}
	.st13{fill:none;stroke:#704335;stroke-width:3;stroke-miterlimit:10;}
	.st14{enable-background:new    ;}
	.st15{fill:url(#SVGID_1_);stroke:#808080;stroke-width:0.75;stroke-miterlimit:10;}
	.st16{fill:url(#SVGID_2_);stroke:#666666;stroke-miterlimit:10;}
	.st17{fill:#D26974;}
	.st18{fill:url(#SVGID_3_);stroke:#808080;stroke-width:0.75;stroke-miterlimit:10;}
	.st19{fill:url(#SVGID_4_);stroke:#666666;stroke-miterlimit:10;}
</style>
<g>
	<path class="st0" d="M36.2,59c0,0-6.4-18.4-5.8-27.4S34.1,20.4,43,14.4c7.6-5.2,19.7,4.2,23,7c0-0.8,0.8-2.4,4-5.7
		c6.3-6.7,20.8-8.5,36-7.1s29.5,13.3,29.5,13.3s0,0,5.5-1.4s14.7,1.5,22.8,6.9c8,5.4,6,24.4,3.7,30.3s-6.6,10.5-6.6,10.5
		s0.3,8.9-2.9,14.4c-3.3,5.5-14.7,4.2-17.1,3.5c0,0-4-2-7.8,2.1c-3.9,4.1-11.7,5.8-11.7,5.8s6.2,16.4,6.6,19.6s7.5,0.8,12.3,1.3
		c4.8,0.5,3.5,12.9-2.5,19.5c-5.6,6.3-9.1,1.5-9.5,1c-0.1,0-0.3,0-0.4,0c0,0-0.1,0-0.2,0h-9.3c-6.9,0.3-14.8,0.8-14.8,0.8L88.2,140
		c0,0-8,1.7-10.5,0c-1.6-1.1-4-5.5-5-10.2c-1.6-5.6-1.4-12.4-0.6-19c1.1-9,4.8-19.8,7-20.9c2.3-1.1-7.1-5-9.6-7.6
		C66.9,79.7,64,79,64,79s0,0-7.4,1.2s-8.1-0.7-14.2-3.5s-5.1-6.1-5.5-10.3C36.5,62.2,36.2,59,36.2,59z"/>
	<g>
		<path class="st1" d="M116.5,90.9c0,0,3.2,5.3,4.8,12.8c1.6,7.5,1.9,16.1,1.9,16.1l5.5-4.6l2.8,0.8c0,0-2.9,13.2-1.2,16.4
			s1.7,3.9-1.5,3.2c-3.3-0.7-17-2-22-1.5s-12.9,3.7-12.9,3.7s-9.4,1.9-13.2,0.7c-3.8-1.2-6.4-5-7.3-14.6s3.1-26.2,3.1-26.2
			s1.5-13.4,4.8-12.1c3.3,1.2,13.4,1.8,13.4,1.8s-0.3,3,4.5,6.1s3.9,5,7.5,4.1c3.6-0.8,6.8-4.4,6.8-4.4L116.5,90.9z"/>
	</g>
	<path class="st0" d="M100.8,112.6c0,0,0.7,5.5,3.2,8.9c2.6,3.4,4.4,6.9,3.8,3.4C107.3,121.4,100.8,110.7,100.8,112.6z"/>
	<g>
		<path class="st2" d="M138.6,117.5c-2.1-2.1-8.7-1.6-9.4,7.1c-0.6,8.7-0.2,13.9,5,12.5C139.3,135.6,143.9,122.8,138.6,117.5z"/>
		<g>
			<path class="st3" d="M132.1,117.7c-0.8,0.6-1.4,1.4-1.9,2.3s-0.8,1.8-1,2.8c-0.1,0.3-0.1,0.6-0.1,0.9c0,0.2,0,0.4,0,0.6
				s0,0.3,0,0.5c-0.1,1.6-0.2,3.3-0.1,5c0,0.9,0,1.7,0.1,2.6c0,0.2,0,0.4,0.1,0.6v0.3l0.1,0.3c0,0.2,0.1,0.4,0.1,0.6
				c0.1,0.2,0.1,0.4,0.2,0.6c0.1,0.3,0.2,0.6,0.4,0.9c0.2,0.3,0.4,0.6,0.6,0.8c0.3,0.2,0.5,0.4,0.9,0.6c0.3,0.1,0.7,0.2,1,0.2
				c0.1,0,0.2,0,0.3,0s0.2,0,0.3,0c0.2,0,0.3,0,0.5-0.1c0.2,0,0.3-0.1,0.5-0.1s0.3-0.1,0.5-0.1c0.6-0.2,1.2-0.6,1.7-1s1-0.9,1.4-1.4
				s0.8-1.1,1.1-1.6c0.3-0.6,0.6-1.2,0.9-1.8c0.1-0.3,0.3-0.6,0.4-0.9c0.1-0.2,0.1-0.3,0.2-0.5c0.1-0.2,0.1-0.3,0.2-0.5
				c0.2-0.7,0.4-1.5,0.6-2.2c0.1-0.7,0.2-1.5,0.3-2.3c0-0.8,0-1.5,0-2.3c-0.1-0.8-0.2-1.5-0.5-2.3c-0.3-0.9-0.7-1.7-1.4-2.5
				c-0.1-0.1-0.3-0.3-0.4-0.4c-0.1-0.1-0.2-0.1,0,0.1c0.1,0.2,0.3,0.4,0.5,0.6c0.1,0.1,0.2,0.2,0.2,0.3l0.1,0.2
				c0,0.1,0.1,0.1,0.1,0.2c0.1,0.1,0.2,0.3,0.2,0.4c0.1,0.1,0.1,0.3,0.2,0.4c0,0.1,0.1,0.1,0.1,0.2s0.1,0.1,0.1,0.2s0.1,0.3,0.1,0.4
				s0.1,0.3,0.1,0.4s0.1,0.3,0.1,0.4c0,0.3,0.1,0.6,0.1,0.9c0.1,1.2,0.1,2.3,0,3.6c-0.2,1.3-0.4,2.5-0.8,3.7
				c-0.4,1.2-0.8,2.3-1.5,3.4c-0.1,0.1-0.2,0.3-0.2,0.4c0,0.1-0.1,0.1-0.1,0.2l-0.1,0.2c-0.1,0.1-0.2,0.2-0.3,0.4
				c-0.1,0.1-0.2,0.2-0.3,0.4l-0.1,0.2l-0.1,0.2c-0.1,0.1-0.2,0.2-0.3,0.3c-0.2,0.2-0.4,0.4-0.6,0.6c-0.1,0.1-0.2,0.2-0.3,0.3
				l-0.3,0.3c-0.1,0.1-0.2,0.1-0.4,0.2c-0.1,0.1-0.2,0.1-0.4,0.2l-0.2,0.1c-0.1,0-0.1,0-0.2,0.1c-0.1,0-0.3,0.1-0.4,0.1
				c-0.3,0.1-0.6,0.1-0.9,0.2c-0.2,0-0.3,0-0.5,0c-0.1,0-0.1,0-0.2,0c-0.1,0-0.1,0-0.2,0c-0.3,0-0.5-0.1-0.7-0.1
				c-0.1,0-0.2,0-0.2-0.1c-0.1,0-0.1,0-0.2-0.1c-0.1,0-0.1-0.1-0.2-0.1c-0.1,0-0.2-0.1-0.3-0.2c-0.1,0-0.1-0.1-0.2-0.2l-0.1-0.1
				c0,0-0.1-0.1-0.1-0.2c-0.2-0.3-0.4-0.6-0.5-0.9c-0.1-0.3-0.2-0.7-0.3-1c-0.2-0.7-0.2-1.4-0.3-2.2c-0.1-0.7-0.1-1.3-0.1-1.9
				c0-0.6,0-1.3,0-1.9c0-1.3,0.1-2.5,0.2-3.8c0.1-1,0.3-2.1,0.7-3c0-0.1,0.1-0.2,0.1-0.4c0-0.1,0.1-0.2,0.1-0.3
				c0.1-0.2,0.2-0.5,0.3-0.7c0.2-0.4,0.5-0.8,0.8-1.2c0.5-0.6,1-1,1.5-1.4c0.5-0.3,1.1-0.6,1.7-0.7c0.5-0.1,1-0.2,1.5-0.1
				c0.3,0,0.6,0.1,0.8,0.1c0.3,0.1,0.5,0.2,0.8,0.3c0.1,0,0.2,0.1,0.3,0.1s0.2,0.1,0.3,0.2c-0.5-0.4-1.2-0.8-2.1-0.9
				c-0.8-0.1-1.7,0-2.5,0.3c-0.1,0-0.2,0.1-0.2,0.1c-0.1,0-0.1,0.1-0.2,0.1C132.9,117.1,132.5,117.4,132.1,117.7z"/>
			<path class="st4" d="M132.4,117.5c-0.4,0.3-0.8,0.6-1.1,1c-0.2,0.2-0.3,0.4-0.5,0.6l-0.2,0.3l-0.1,0.1l-0.1,0.2
				c-0.5,0.8-0.8,1.7-1.1,2.7c0,0.1-0.1,0.3-0.1,0.4s-0.1,0.3-0.1,0.5s0,0.4-0.1,0.6c0,0.2,0,0.3,0,0.5c-0.1,1.7-0.2,3.3-0.2,5
				c0,0.9,0,1.7,0.1,2.6c0.1,0.9,0.2,1.7,0.4,2.6c0.1,0.3,0.2,0.6,0.3,1c0.1,0.2,0.1,0.3,0.2,0.4c0,0.1,0.1,0.1,0.1,0.2l0.2,0.2
				c0.2,0.3,0.5,0.5,0.8,0.7c0.1,0,0.2,0.1,0.2,0.1c0.1,0,0.2,0.1,0.2,0.1c0.1,0,0.2,0.1,0.2,0.1l0.2,0.1c0.1,0,0.2,0,0.2,0
				c0.1,0,0.2,0,0.2,0h0.2h0.1h0.1c0.2,0,0.3,0,0.5-0.1h0.2l0.2-0.1l0.2-0.1l0.2-0.1l0.2-0.1c0.1,0,0.1-0.1,0.2-0.1
				c0.1-0.1,0.3-0.1,0.4-0.2l0.2-0.1c0.1,0,0.1-0.1,0.2-0.1c0.5-0.4,1-0.8,1.4-1.3s0.8-1,1.2-1.6l0.3-0.4c0.1-0.1,0.2-0.3,0.2-0.4
				c0.2-0.3,0.3-0.6,0.5-0.9c0.3-0.6,0.5-1.2,0.8-1.9c0.1-0.4,0.2-0.7,0.4-1.1c0.1-0.4,0.2-0.7,0.3-1.1s0.1-0.7,0.2-1.1
				c0-0.2,0.1-0.4,0.1-0.6v-0.3v-0.3c0.1-0.8,0.1-1.5,0-2.3c0-0.8-0.2-1.5-0.4-2.3c-0.3-0.9-0.6-1.8-1.2-2.5
				c-0.1-0.1-0.2-0.2-0.2-0.3c-0.1-0.1-0.2-0.2-0.3-0.3c-0.2-0.2-0.3-0.3-0.2-0.1c0.1,0.2,0.3,0.4,0.5,0.6c0.1,0.1,0.2,0.2,0.2,0.3
				l0.1,0.2c0,0.1,0.1,0.1,0.1,0.2c0.1,0.1,0.2,0.3,0.2,0.4c0.1,0.1,0.1,0.3,0.2,0.4c0,0.1,0.1,0.1,0.1,0.2s0.1,0.1,0.1,0.2
				s0.1,0.3,0.1,0.4s0.1,0.3,0.1,0.4s0.1,0.3,0.1,0.4c0,0.3,0.1,0.6,0.1,0.9c0.1,1.2,0.1,2.3,0,3.6c-0.2,1.3-0.4,2.5-0.8,3.7
				c-0.4,1.2-0.8,2.3-1.5,3.4c-0.2,0.3-0.3,0.5-0.5,0.8c-0.1,0.1-0.2,0.2-0.3,0.4c-0.1,0.1-0.2,0.2-0.3,0.4l-0.1,0.2l-0.1,0.2
				c-0.1,0.1-0.2,0.2-0.3,0.3c-0.2,0.2-0.4,0.4-0.6,0.6c-0.1,0.1-0.2,0.2-0.3,0.3l-0.3,0.2c-0.2,0.1-0.5,0.3-0.7,0.4l-0.2,0.1
				c-0.1,0-0.1,0-0.2,0.1c-0.1,0-0.3,0.1-0.4,0.1c-0.3,0.1-0.6,0.1-0.9,0.2c-0.2,0-0.3,0-0.5,0c-0.1,0-0.1,0-0.2,0
				c-0.1,0-0.1,0-0.2,0c-0.3,0-0.5-0.1-0.7-0.1c-0.1,0-0.1,0-0.2-0.1c-0.1,0-0.1,0-0.1-0.1c-0.1,0-0.1-0.1-0.2-0.1
				c-0.1,0-0.1-0.1-0.3-0.2c-0.1,0-0.1-0.1-0.2-0.2l-0.1-0.1c0,0-0.1-0.1-0.1-0.2c-0.2-0.3-0.4-0.6-0.5-0.9c-0.1-0.3-0.2-0.7-0.3-1
				c-0.2-0.7-0.2-1.4-0.3-2.2c-0.1-0.7-0.1-1.3-0.1-1.9c0-0.6,0-1.3,0-1.9c0-1.3,0.1-2.5,0.2-3.8c0.1-1,0.3-2.1,0.7-3
				c0-0.1,0.1-0.2,0.1-0.4c0-0.1,0.1-0.2,0.1-0.3c0.1-0.2,0.2-0.5,0.3-0.7c0.2-0.4,0.5-0.8,0.8-1.2c0.5-0.6,1-1,1.5-1.4
				c0.5-0.3,1.1-0.6,1.7-0.7c0.5-0.1,1-0.2,1.5-0.1c0.3,0,0.6,0.1,0.8,0.1c0.3,0.1,0.5,0.2,0.8,0.3c0.1,0,0.2,0.1,0.3,0.1
				s0.2,0.1,0.3,0.2c-1-0.8-2.6-1.1-4.2-0.6c-0.2,0.1-0.3,0.1-0.5,0.2C133.3,116.9,132.8,117.2,132.4,117.5z"/>
			<path class="st5" d="M133,117.2c-0.9,0.5-1.6,1.2-2.1,1.9c-0.5,0.8-1,1.7-1.2,2.6c-0.1,0.3-0.2,0.6-0.2,0.9
				c-0.1,0.5-0.1,0.7-0.1,1.1c-0.1,0.8-0.1,1.6-0.1,2.4s-0.1,1.6-0.1,2.4s0,1.6,0,2.4c0,0.8,0.1,1.7,0.3,2.5
				c0.1,0.7,0.3,1.3,0.6,1.9c0.3,0.6,0.7,1.1,1.2,1.5l0.1,0.1c0,0,0.1,0,0.1,0.1c0.1,0,0.1,0.1,0.2,0.1c0.2,0,0.3,0.1,0.5,0.1
				c0.3,0.1,0.6,0.1,0.9,0.1c0.2,0,0.3,0,0.5,0s0.3,0,0.5-0.1c0.2,0,0.3-0.1,0.5-0.1l0.4-0.2c0.6-0.2,1.1-0.6,1.6-1s0.9-0.9,1.3-1.4
				c0.4-0.5,0.7-1,1.1-1.6c0.2-0.3,0.3-0.6,0.5-0.9c0.1-0.2,0.2-0.3,0.2-0.5c0.1-0.2,0.1-0.3,0.2-0.5c0.6-1.4,1-2.9,1.3-4.4
				c0-0.2,0.1-0.4,0.1-0.6l0.1-0.6c0-0.4,0.1-0.8,0.1-1.1c0-0.4,0-0.8,0-1.1c0-0.4,0-0.8-0.1-1.1c0-0.1,0-0.2-0.1-0.4
				c0-0.1-0.1-0.3-0.1-0.4c0-0.3-0.1-0.6-0.2-0.8c0-0.1-0.1-0.3-0.1-0.4c-0.1-0.1-0.1-0.3-0.2-0.4c-0.1-0.3-0.2-0.5-0.4-0.7
				c-0.1-0.1-0.1-0.2-0.3-0.4c0-0.1-0.1-0.2-0.2-0.3c-0.1-0.1-0.1-0.2-0.2-0.3c-0.1-0.2-0.2-0.3-0.3-0.4s-0.1-0.1,0,0
				s0.1,0.2,0.2,0.3c0.1,0.1,0.1,0.2,0.2,0.3c0,0.1,0.1,0.1,0.1,0.2s0.1,0.1,0.1,0.2c0.1,0.1,0.1,0.2,0.2,0.4
				c0.3,0.6,0.5,1.1,0.6,1.7c0,0.1,0.1,0.3,0.1,0.4s0.1,0.3,0.1,0.4v0.2v0.2v0.4c0.1,1.2,0,2.3-0.1,3.6c-0.2,1.3-0.5,2.5-0.9,3.7
				c-0.2,0.6-0.4,1.2-0.7,1.7c-0.3,0.6-0.5,1.1-0.9,1.7c-0.6,1.1-1.4,2-2.3,2.7c-0.4,0.3-0.9,0.6-1.4,0.8c-0.1,0-0.3,0.1-0.4,0.1
				c-0.1,0-0.3,0.1-0.4,0.1c-0.1,0-0.3,0-0.4,0.1c-0.1,0-0.3,0-0.4,0c-0.2,0-0.3,0-0.5,0c-0.1,0-0.1,0-0.2,0c-0.1,0-0.1,0-0.2,0H132
				h-0.1c-0.1,0-0.1,0-0.2,0c-0.1,0-0.2-0.1-0.3-0.1c-0.2-0.1-0.2-0.1-0.3-0.2c-0.1,0-0.1-0.1-0.2-0.1c0,0-0.1,0-0.1-0.1l-0.1-0.1
				c-0.1-0.1-0.2-0.2-0.4-0.5c-0.4-0.6-0.6-1.3-0.7-2c-0.1-0.7-0.2-1.4-0.3-2.2c-0.1-1.3-0.1-2.6,0-3.8c0-0.6,0.1-1.3,0.1-1.9
				c0-0.3,0-0.6,0.1-1c0-0.3,0.1-0.6,0.1-1c0.1-1,0.4-2.1,0.7-3c0-0.1,0.1-0.2,0.1-0.4c0-0.1,0.1-0.2,0.2-0.3
				c0.1-0.2,0.2-0.4,0.3-0.7c0.3-0.4,0.5-0.8,0.8-1.2c0.1-0.1,0.3-0.3,0.4-0.4c0.1-0.1,0.3-0.2,0.4-0.3c0.3-0.2,0.5-0.4,0.8-0.5
				c0.5-0.3,1.1-0.5,1.7-0.7c0.5-0.1,1-0.1,1.5,0s1.1,0.2,1.6,0.5c0.1,0.1,0.2,0.1,0.3,0.2l0.1,0.1l0.1,0.1
				c-0.1-0.1-0.2-0.2-0.4-0.3c-0.1-0.1-0.3-0.2-0.4-0.2c-0.1-0.1-0.3-0.1-0.4-0.2c-0.1,0-0.1,0-0.2-0.1c-0.1,0-0.2,0-0.2-0.1
				c-0.6-0.1-1.3-0.2-2.1,0c-0.2,0-0.3,0.1-0.5,0.1C133.9,116.8,133.4,116.9,133,117.2z"/>
			<path class="st6" d="M133.1,117.2c-0.3,0.2-0.6,0.4-0.8,0.6s-0.5,0.4-0.7,0.6s-0.4,0.5-0.7,0.8c-0.1,0.1-0.1,0.2-0.2,0.3
				c-0.1,0.1-0.1,0.2-0.2,0.3c-0.1,0.1-0.1,0.2-0.2,0.4c-0.1,0.1-0.1,0.3-0.2,0.4c-0.1,0.3-0.2,0.5-0.3,0.8c0,0.1-0.1,0.2-0.1,0.3
				c0,0.1,0,0.2-0.1,0.3c0,0.2-0.1,0.3-0.1,0.5c-0.2,0.8-0.2,1.6-0.3,2.4c0,0.8-0.1,1.6-0.1,2.4c0,1.6-0.1,3.2,0.1,4.9
				c0.1,0.7,0.2,1.3,0.3,1.9c0.1,0.6,0.3,1.1,0.6,1.6s0.7,0.9,1.1,1.1c0.5,0.2,1,0.3,1.5,0.3c1-0.1,2.1-0.4,3-1.1
				c0.2-0.2,0.4-0.4,0.7-0.6c0.2-0.2,0.4-0.4,0.6-0.7c0.4-0.5,0.8-1,1.1-1.6c0.8-1.3,1.4-2.6,1.8-3.9c0.2-0.7,0.4-1.3,0.5-2
				c0.1-0.3,0.1-0.7,0.2-1.1c0-0.4,0.1-0.7,0.1-1.1c0-0.1,0-0.3,0-0.4c0-0.2,0-0.3,0-0.5c0-0.1,0-0.2,0-0.3c0-0.1,0-0.2,0-0.3
				c0-0.2,0-0.4,0-0.6c0-0.8-0.2-1.6-0.3-2.1c0-0.1-0.1-0.4-0.2-0.7c-0.1-0.2-0.1-0.3-0.2-0.5c-0.1-0.2-0.2-0.4-0.2-0.5
				c-0.1-0.2-0.2-0.3-0.3-0.5c-0.1-0.1-0.2-0.3-0.2-0.4c-0.1-0.2-0.2-0.3-0.1-0.2c0.1,0.1,0.1,0.2,0.2,0.2c0,0.1,0.1,0.2,0.1,0.2
				c0,0.1,0.1,0.2,0.1,0.3l0.1,0.1c0,0.1,0.1,0.1,0.1,0.2c0.1,0.1,0.1,0.3,0.2,0.4c0.1,0.1,0.1,0.3,0.2,0.4c0.1,0.3,0.2,0.6,0.2,0.8
				c0,0.1,0.1,0.3,0.1,0.4s0.1,0.3,0.1,0.4c0,0.3,0.1,0.5,0.1,0.8c0.1,1.1,0,2.2-0.2,3.4c-0.2,1.3-0.5,2.5-0.9,3.7s-0.9,2.4-1.6,3.5
				c-0.1,0.1-0.2,0.3-0.3,0.4c-0.1,0.1-0.2,0.3-0.3,0.4c-0.2,0.2-0.4,0.5-0.6,0.7c-0.4,0.4-0.8,0.8-1.2,1.2
				c-0.4,0.3-0.9,0.6-1.4,0.8l-0.2,0.1c-0.1,0-0.1,0-0.2,0.1c-0.1,0-0.3,0.1-0.4,0.1c-0.1,0-0.3,0.1-0.4,0.1h-0.2
				c-0.1,0-0.1,0-0.2,0c-0.3,0-0.6,0-0.9-0.1c-0.3-0.1-0.5-0.2-0.6-0.2s-0.1-0.1-0.2-0.1l-0.1-0.1c-0.1-0.1-0.1-0.1-0.2-0.2
				c-0.1-0.1-0.1-0.1-0.2-0.2c0-0.1-0.1-0.1-0.1-0.2c-0.1-0.1-0.1-0.2-0.2-0.3c-0.3-0.6-0.5-1.3-0.6-1.9c-0.1-0.6-0.2-1.3-0.3-2.1
				c-0.1-1.3-0.1-2.6,0-3.8c0-0.6,0.1-1.3,0.1-1.9s0.1-1.3,0.2-1.9c0.1-1,0.4-2,0.8-3c0.2-0.5,0.4-0.9,0.7-1.3s0.5-0.8,0.9-1.2
				c0.5-0.6,1-1,1.6-1.3c0.5-0.3,1.1-0.5,1.7-0.6c0.5-0.1,1-0.1,1.5,0s1.1,0.3,1.6,0.6c0.1,0.1,0.2,0.1,0.3,0.2s0.2,0.1,0.3,0.2
				c-0.4-0.5-0.9-0.7-1.4-0.9c-0.5-0.2-1.1-0.2-1.9-0.2c-0.1,0-0.2,0-0.3,0.1c-0.1,0-0.2,0-0.3,0.1c0.2,0,0.2,0,0.3,0l0,0h-0.1
				c0,0-0.1,0-0.2,0c-0.1,0-0.1,0-0.2,0c-0.1,0-0.1,0-0.2,0.1c-0.3,0.1-0.6,0.2-0.9,0.3c-0.1,0.1-0.2,0.1-0.3,0.2
				C133.1,117.2,133.1,117.2,133.1,117.2z"/>
		</g>
	</g>
	<g>
		<path class="st2" d="M85.6,117c-3-1.1-7.7,6-3.5,14.8c4.1,8.8,6.6,10,10.3,6.3C96.1,134.4,93.1,119.7,85.6,117z"/>
		<g>
			<path class="st3" d="M80.7,121.8c-0.5,2.1-0.5,4.1-0.1,6.2c0.1,0.3,0.1,0.6,0.2,0.9c0.1,0.5,0.3,0.8,0.4,1.1
				c0.3,0.8,0.7,1.7,1.1,2.5s0.8,1.6,1.3,2.4c0.5,0.8,0.9,1.6,1.5,2.4c0.1,0.2,0.3,0.4,0.4,0.6c0.1,0.2,0.3,0.4,0.5,0.5
				c0.3,0.4,0.6,0.7,1,1c0.3,0.2,0.6,0.4,1,0.5s0.7,0.2,1.1,0.2s0.7-0.1,1.1-0.3c0.3-0.1,0.7-0.3,0.9-0.5c0.3-0.2,0.6-0.4,0.8-0.7
				l0.2-0.2l0.2-0.2c0.1-0.1,0.3-0.3,0.4-0.4c0.5-0.6,0.8-1.2,1-1.9s0.3-1.4,0.4-2.1c0.1-0.7,0.1-1.4,0-2.1
				c-0.1-1.4-0.3-2.9-0.7-4.3c-0.4-1.6-1-3.2-1.7-4.6c-0.7-1.5-1.6-2.8-2.8-4c-0.8-0.7-1.5-1.3-2.5-1.8c-0.2-0.1-0.5-0.2-0.6-0.2
				c-0.2,0-0.2,0,0,0.1c0.4,0.2,1,0.5,1.5,0.8c0.6,0.4,1.1,0.8,1.5,1.3s0.8,0.9,1.2,1.5c0.7,1,1.3,2.1,1.9,3.4s1,2.6,1.3,3.9
				s0.6,2.6,0.7,4s0,2.6-0.3,3.8c-0.2,0.6-0.4,1.2-0.7,1.7c-0.2,0.3-0.3,0.5-0.5,0.7c-0.1,0.1-0.2,0.2-0.3,0.3
				c-0.1,0.1-0.2,0.2-0.4,0.3c-0.3,0.2-0.5,0.4-0.8,0.6c-0.2,0.2-0.5,0.3-0.6,0.4c-0.1,0.1-0.2,0.1-0.2,0.1c-0.1,0-0.1,0.1-0.2,0.1
				s-0.2,0.1-0.2,0.1c-0.1,0-0.2,0.1-0.3,0.1c-0.1,0-0.2,0-0.3,0c-0.1,0-0.2,0-0.4,0c-0.4-0.1-0.7-0.2-1.1-0.4
				c-0.3-0.2-0.6-0.4-0.9-0.7c-0.5-0.5-1-1.2-1.5-1.9c-0.8-1.2-1.5-2.4-2.1-3.6c-0.6-1.2-1.2-2.4-1.6-3.8c-0.3-1.1-0.6-2.2-0.7-3.3
				c-0.1-1.1-0.1-2.2,0-3.2c0.1-0.8,0.3-1.5,0.4-2.2c0.2-0.6,0.4-1.2,0.8-1.9c0.3-0.4,0.6-0.9,1-1.3c0.1-0.1,0.2-0.2,0.3-0.3
				c0.1,0,0.1-0.1,0.2-0.1l0.2-0.1l0.1-0.1l0.1-0.1l0.2-0.1c0.1,0,0.3-0.1,0.4-0.1s0.1,0,0.2,0s0.1,0,0.2,0s0.1,0,0.2,0s0.1,0,0.2,0
				c-0.3-0.1-0.8,0-1.2,0.1c-0.4,0.1-0.8,0.4-1.1,0.7c-0.3,0.3-0.7,0.7-0.9,1c-0.1,0.1-0.1,0.2-0.2,0.3c-0.1,0.1-0.1,0.2-0.2,0.3
				c-0.1,0.2-0.2,0.4-0.3,0.6c-0.1,0.2-0.1,0.3-0.2,0.5C81,120.8,80.8,121.3,80.7,121.8z"/>
			<path class="st4" d="M80.8,121.4c-0.3,1-0.5,2.1-0.5,3.1s0,2.1,0.2,3.1c0,0.2,0.1,0.3,0.1,0.5c0,0.2,0.1,0.3,0.1,0.5
				c0.2,0.5,0.2,0.8,0.4,1.1c0.1,0.4,0.3,0.8,0.5,1.3c0.2,0.4,0.4,0.8,0.6,1.2c0.4,0.8,0.8,1.6,1.3,2.4c0.4,0.8,0.9,1.6,1.4,2.4
				c0.3,0.4,0.5,0.8,0.8,1.1c0.3,0.4,0.6,0.7,1,1c0.5,0.5,1.2,0.9,2,0.9c0.4,0,0.7,0,1.1-0.1c0.3-0.1,0.7-0.3,1-0.4
				c0.6-0.4,1.1-0.8,1.6-1.3s0.9-1.1,1.1-1.8s0.4-1.4,0.5-2.1c0.1-0.7,0.1-1.4,0.1-2.1c0-1.4-0.2-2.9-0.6-4.3
				c-0.4-1.6-0.9-3.2-1.6-4.7s-1.6-2.9-2.7-4.1c-0.7-0.8-1.5-1.4-2.4-1.9c-0.1-0.1-0.2-0.1-0.4-0.2c-0.2-0.1-0.3-0.1-0.5-0.2
				c-0.3-0.1-0.5-0.2-0.2-0.1c0.4,0.2,1,0.5,1.5,0.8c1.1,0.8,2,1.7,2.7,2.7s1.3,2.1,1.9,3.4s1,2.6,1.3,3.9c0.3,1.3,0.6,2.6,0.7,4
				c0.1,1.4,0,2.6-0.3,3.8c-0.2,0.6-0.4,1.2-0.7,1.7c-0.2,0.3-0.3,0.5-0.5,0.7c-0.1,0.1-0.2,0.2-0.3,0.3c-0.1,0.1-0.2,0.2-0.4,0.3
				c-0.1,0.1-0.3,0.2-0.4,0.3s-0.1,0.1-0.2,0.2c-0.1,0-0.1,0.1-0.2,0.1c-0.2,0.2-0.5,0.3-0.6,0.4c-0.2,0.1-0.3,0.1-0.4,0.2
				c-0.1,0-0.2,0.1-0.2,0.1c-0.1,0-0.2,0-0.3,0.1c-0.1,0-0.2,0-0.3,0c-0.1,0-0.1,0-0.2,0h-0.1h-0.1c-0.4-0.1-0.7-0.2-1.1-0.4
				c-0.3-0.2-0.6-0.4-0.9-0.7c-0.5-0.5-1-1.1-1.5-1.9c-0.8-1.2-1.5-2.4-2.1-3.6c-0.6-1.2-1.2-2.4-1.6-3.8c-0.3-1.1-0.6-2.2-0.7-3.3
				c-0.1-1.1-0.1-2.2,0-3.2c0.1-0.8,0.3-1.5,0.4-2.2c0.2-0.6,0.4-1.2,0.8-1.9c0.3-0.4,0.6-0.9,1-1.3c0.1-0.1,0.2-0.2,0.3-0.3
				l0.2-0.1l0.2-0.1l0.1-0.1c0,0,0.1,0,0.1-0.1l0.2-0.1l0.2-0.1h0.1h0.1c0.1,0,0.1,0,0.2,0s0.1,0,0.2,0s0.1,0,0.2,0s0.1,0,0.2,0
				c-0.3-0.1-0.7,0-1.1,0.1s-0.7,0.3-1,0.6c-0.3,0.3-0.6,0.6-0.9,0.9s-0.5,0.7-0.7,1.1c-0.1,0.2-0.1,0.3-0.2,0.5
				C81.2,120.4,81,120.9,80.8,121.4z"/>
			<path class="st5" d="M81.1,120.8c-0.2,0.5-0.3,1-0.4,1.5s-0.2,1-0.2,1.5c-0.1,1-0.1,2.1,0.1,3.1c0,0.2,0.1,0.3,0.1,0.5
				s0.1,0.3,0.1,0.5c0.1,0.2,0.1,0.4,0.2,0.6s0.1,0.3,0.2,0.5c0.3,0.9,0.6,1.7,1,2.5s0.8,1.6,1.2,2.3c0.4,0.8,0.8,1.5,1.3,2.3
				s1,1.5,1.6,2.2c0.5,0.5,1,1,1.6,1.4c0.3,0.2,0.6,0.3,1,0.3c0.3,0,0.7,0,1-0.1c0.2,0,0.3-0.1,0.5-0.2c0.2-0.1,0.3-0.1,0.5-0.2
				c0.3-0.2,0.6-0.4,0.8-0.6c0.3-0.2,0.5-0.4,0.8-0.7c0.2-0.2,0.5-0.5,0.7-0.8c0.4-0.6,0.6-1.2,0.8-1.8c0.2-0.7,0.3-1.3,0.3-2
				c0.1-1.4,0-2.8-0.2-4.2c-0.3-1.6-0.7-3.2-1.3-4.7c-0.6-1.5-1.3-3-2.3-4.3c-0.3-0.4-0.7-0.9-1.2-1.4c-0.4-0.5-0.9-0.9-1.4-1.2
				c-0.2-0.1-0.6-0.4-1-0.6s-0.7-0.3-0.5-0.2c0.4,0.2,1,0.5,1.4,0.9c1.1,0.8,1.9,1.8,2.6,2.8s1.3,2.2,1.8,3.4
				c0.5,1.3,0.9,2.6,1.3,3.9c0.3,1.3,0.5,2.6,0.6,4c0,1.3-0.1,2.6-0.4,3.8c-0.2,0.6-0.4,1.1-0.8,1.6c-0.1,0.1-0.2,0.2-0.3,0.3
				c-0.1,0.1-0.2,0.2-0.3,0.3c-0.1,0.1-0.2,0.2-0.4,0.3c-0.1,0.1-0.2,0.2-0.4,0.3c-0.3,0.2-0.5,0.4-0.8,0.6
				c-0.1,0.1-0.3,0.1-0.4,0.2c-0.1,0.1-0.2,0.1-0.3,0.1c-0.3,0.1-0.4,0.1-0.6,0.2c-0.1,0-0.3,0.1-0.9,0c-0.4-0.1-0.7-0.3-1-0.5
				s-0.6-0.5-0.8-0.7c-0.5-0.5-1-1.2-1.4-1.9c-0.4-0.6-0.8-1.2-1.1-1.8c-0.3-0.6-0.7-1.2-1-1.8c-0.6-1.2-1.2-2.4-1.6-3.8
				c-0.6-2.2-0.8-4.4-0.5-6.5c0.1-0.8,0.3-1.5,0.5-2.1s0.5-1.2,0.8-1.8c0.3-0.4,0.6-0.9,1.1-1.3c0.1-0.1,0.2-0.2,0.4-0.3
				c0.1-0.1,0.3-0.2,0.4-0.2c0.3-0.1,0.6-0.2,0.9-0.3c0.1,0,0.2,0,0.3,0c0.1,0,0.1,0,0.2,0s0.1,0,0.2,0c-0.3-0.1-0.7-0.1-1-0.1
				c-0.1,0-0.2,0-0.2,0.1c-0.1,0-0.2,0-0.2,0.1c-0.1,0-0.2,0.1-0.2,0.1c-0.1,0-0.1,0.1-0.2,0.1s-0.1,0.1-0.2,0.2s-0.1,0.1-0.2,0.2
				s-0.3,0.2-0.4,0.4c-0.3,0.3-0.5,0.6-0.7,1c-0.1,0.2-0.2,0.3-0.2,0.5C81.5,119.9,81.3,120.3,81.1,120.8z"/>
			<path class="st6" d="M81.2,120.8c-0.1,0.4-0.2,0.7-0.3,1c0,0.2-0.1,0.3-0.1,0.5s-0.1,0.3-0.1,0.5c-0.1,0.7-0.2,1.5-0.2,2.8
				c0,0.2,0,0.3,0,0.5c0,0.1,0,0.2,0,0.2v0.2c0,0.2,0.1,0.4,0.1,0.6s0.1,0.4,0.1,0.6c0.2,0.9,0.5,1.7,0.8,2.5
				c0.1,0.2,0.2,0.4,0.2,0.6c0.1,0.2,0.2,0.4,0.3,0.6c0.2,0.4,0.4,0.8,0.6,1.2c0.4,0.8,0.8,1.5,1.2,2.3c0.4,0.8,0.9,1.5,1.4,2.3
				c0.4,0.6,0.8,1.1,1.3,1.6s1,0.8,1.6,1c0.3,0.1,0.6,0.1,0.9,0.1s0.6-0.1,0.8-0.2c0.5-0.2,1-0.5,1.5-0.9c0.1-0.1,0.2-0.2,0.3-0.3
				c0.1-0.1,0.2-0.2,0.3-0.3c0.2-0.2,0.4-0.4,0.6-0.6c0.4-0.4,0.6-1,0.8-1.6c0.4-1.2,0.5-2.5,0.5-3.9c0-1.7-0.3-3.1-0.6-4.6
				c-0.4-1.4-0.8-2.9-1.5-4.3c-0.2-0.5-0.6-1.3-1.1-2c-0.2-0.4-0.5-0.7-0.7-1.1c-0.2-0.3-0.5-0.6-0.7-0.8c-0.1-0.2-0.8-0.9-1.5-1.4
				c-0.3-0.3-0.7-0.5-0.9-0.6c-0.2-0.1-0.3-0.2-0.2-0.1c0.2,0.1,0.3,0.2,0.5,0.3c0.1,0.1,0.2,0.1,0.3,0.2c0.1,0.1,0.2,0.1,0.3,0.2
				c0.5,0.4,1,0.9,1.4,1.3c0.4,0.5,0.8,0.9,1.1,1.4c0.6,1,1.2,2,1.7,3.3s1,2.6,1.3,4c0.3,1.3,0.5,2.7,0.6,4.1c0,1.3-0.1,2.6-0.5,3.8
				c-0.2,0.6-0.4,1.1-0.8,1.6c-0.1,0.1-0.2,0.2-0.3,0.3c-0.1,0.1-0.2,0.2-0.3,0.3c-0.2,0.2-0.5,0.4-0.7,0.6
				c-0.3,0.2-0.6,0.4-0.8,0.5c-0.1,0.1-0.3,0.1-0.4,0.2c-0.1,0-0.1,0-0.2,0.1c-0.1,0-0.1,0-0.1,0.1c-0.4,0.1-0.5,0.1-0.7,0.1
				c-0.1,0-0.2,0-0.3,0c-0.1,0-0.2,0-0.3-0.1c-0.1,0-0.1,0-0.2-0.1c-0.1,0-0.1,0-0.2-0.1c-0.4-0.1-0.7-0.3-0.9-0.6
				c-0.1-0.1-0.3-0.2-0.4-0.3s-0.3-0.2-0.4-0.4c-0.5-0.5-0.9-1.1-1.4-1.8c-0.8-1.2-1.4-2.4-2-3.6c-0.6-1.2-1.2-2.4-1.6-3.8
				c-0.6-2.2-0.8-4.4-0.4-6.5c0.1-0.8,0.3-1.5,0.5-2.1s0.5-1.2,0.9-1.8c0.3-0.4,0.6-0.9,1.1-1.2c0.1-0.1,0.2-0.2,0.4-0.3
				c0.1-0.1,0.3-0.1,0.4-0.2c0.3-0.1,0.6-0.2,0.9-0.2h0.1h0.1c0.1,0,0.1,0,0.2,0s0.2,0,0.4,0.1c-0.3-0.1-0.6-0.2-0.9-0.1
				c-0.1,0-0.3,0-0.4,0.1c-0.1,0-0.1,0-0.2,0.1c-0.1,0-0.1,0.1-0.2,0.1s-0.1,0.1-0.2,0.1s-0.1,0.1-0.2,0.1s-0.1,0.1-0.2,0.1
				s-0.1,0.1-0.2,0.2s-0.1,0.1-0.2,0.2s-0.1,0.1-0.2,0.2s-0.3,0.3-0.4,0.5s-0.2,0.4-0.3,0.5c0.1-0.1,0.1-0.2,0.2-0.3l0,0
				c0,0.1-0.1,0.1-0.2,0.3c-0.1,0.1-0.2,0.2-0.2,0.4c-0.1,0.1-0.2,0.3-0.2,0.5c-0.1,0.2-0.1,0.3-0.2,0.5c-0.1,0.1-0.1,0.3-0.1,0.3
				C81.2,120.8,81.2,120.8,81.2,120.8z"/>
		</g>
	</g>
	<g>
		<path class="st2" d="M111.5,127.8c0,0,0.2,0.1,0.7,0.2c1.8,0.6,6.9,2,8.4,1.2c1.8-0.9,1.1-2.2,1.1-2.2l-2.2-0.8
			c0,0-0.7-3.2-2.1-2.1s-1.6,3.2-2.3,1.9c-0.7-1.3-2.6-0.9-2.6-0.9l-0.9,1c0,0-3.1-2.4-3.9-1.3c-0.9,1-1.5,2.4-1.5,2.4
			s-0.3,0.4-1.7,0.5c-1.3,0.1-2.2,1-2.2,1l-1.2,1.4c0,0-1.4,1.1-0.4,1.7c1,0.7,0.8,2.4,2.9,0.5s6.1-4,6.1-4"/>
		<path class="st2" d="M102.4,133.4c0.3,0,0.8-0.3,1.4-0.9c2.1-1.9,6-4,6.1-4l0,0c0,0-4,2.1-6.1,4
			C103.1,133.1,102.6,133.4,102.4,133.4c-0.4,0-0.6-0.3-0.8-0.6s-0.4-0.5-0.7-0.7c-0.2-0.2-0.3-0.3-0.4-0.5c0-0.6,0.8-1.2,0.8-1.2
			l1.2-1.4c0,0,0.9-0.8,2.2-1c1.3-0.1,1.7-0.5,1.7-0.5l0,0c0,0,0.6-1.4,1.5-2.4c0.8-1,3.9,1.3,3.9,1.4l0,0l0.9-1
			c0.1,0,1.9-0.3,2.5,0.9c0.1,0.3,0.3,0.4,0.4,0.4c0.2,0,0.4-0.3,0.6-0.7c0.3-0.5,0.7-1.1,1.3-1.6c0.3-0.2,0.5-0.3,0.8-0.2
			c0.8,0.3,1.3,2.2,1.3,2.3l0,0l2.1,0.7c0,0.1,0.2,0.5,0.1,1c-0.1,0.5-0.5,0.9-1.2,1.2c-0.6,0.3-2,0.3-4-0.1
			c-1.7-0.3-3.4-0.8-4.3-1.1c-0.4-0.1-0.7-0.2-0.7-0.2l0,0c0,0,0.3,0.1,0.7,0.2c0.9,0.3,2.6,0.8,4.3,1.1c2.1,0.4,3.4,0.5,4.1,0.1
			c0.6-0.3,1.1-0.7,1.2-1.2c0.2-0.5-0.1-1-0.1-1l0,0l-2.1-0.7c0-0.1-0.1-0.5-0.3-1c-0.3-0.7-0.6-1.1-1-1.3c-0.3-0.1-0.5,0-0.8,0.2
			c-0.6,0.5-1,1.1-1.3,1.6c-0.2,0.4-0.4,0.7-0.6,0.7l0,0c-0.1,0-0.2-0.1-0.4-0.4c-0.7-1.3-2.6-0.9-2.6-0.9l0,0l-0.8,1
			c-0.1-0.1-0.8-0.6-1.6-1.1c-1.2-0.6-1.9-0.7-2.3-0.3c-0.8,1-1.5,2.3-1.5,2.4c0,0-0.4,0.4-1.6,0.5c-1.3,0.1-2.2,1-2.2,1l-1.2,1.4
			c0,0-0.8,0.6-0.8,1.2c0,0.2,0.1,0.4,0.4,0.6c0.3,0.2,0.5,0.5,0.6,0.7c0.2,0.3,0.4,0.6,0.7,0.6
			C102.3,133.4,102.4,133.4,102.4,133.4z"/>
	</g>
	<g>
		<path class="st1" d="M139,81c0,0,7.6-14.4,5.9-28.3c-1.8-14-6.7-27.2-6.7-27.2s7.5-0.2,15.7,1.4s11.8,15.4,11.2,19.7
			c-0.5,4.3-2.2,6.8-2.2,6.8s0,0.5-2.4,4.5c-2.5,4-3.9,4.1-4.4,8.9s-0.5,5.2,0.2,7.5s2.5,1.2,0,5.2C153.8,83.4,141.7,84.5,139,81z"
			/>
	</g>
	<g>
		<path class="st1" d="M61.4,20.9c0,0-14.4-6.3-21.5,0.5c-7,6.9-6.6,11.1-5.1,17.2s4.7,10.1,5.6,13.8c0.8,3.7,0.7,8.1,1.1,12.3
			C42,69,37.3,70.4,43,75.2c5.7,4.7,13.6,2.6,18.4,2.6s5.1-1.9,2.5-3.6c-2.5-1.7-9.8-7.7-8.7-22.1s5.9-29.7,5.9-29.7"/>
	</g>
	<g>
		<path class="st1" d="M94.3,93.2c0,0,6,2.3,12.4,4.3c4.8,1.5,25.2,12.8,59.6,8.4c31.9-4.1,55.1-56,52.5-63.1
			c-7.4-19.9-12.5,41.5-58.1,57.4c-16.2,5.6-46.2-10.5-41.9-10.4c4.3,0.1,18.2-6.1,20.6-16.8c2.4-10.6,2-30.9-6.8-43
			s-27.3-19.8-44.4-17.3c-17.1,2.6-26,14.8-26,14.8s-8.3,19.6-3.7,33.1C63,74,70.6,83.8,80.5,86.3c9.8,2.6,11.4,4.9,11.4,4.9
			L94.3,93.2z"/>
	</g>
	<g>
		<path class="st7" d="M137.9,71.5c-3.3,0.8-8.1,3.6-5.8,5.7s4.7,0.1,6.4,1.1C140.3,79.4,141.6,70.6,137.9,71.5z"/>
		<path class="st8" d="M138.9,78.5c0.9-0.1,1.6-2.6,1.4-4.5c-0.1-0.8-0.3-1.4-0.6-1.9c-0.4-0.6-1-0.8-1.8-0.6
			c-2.4,0.6-5.9,2.4-6.4,4.2c-0.1,0.6,0,1.1,0.6,1.6c1.3,1.2,2.7,1.1,4,0.9c0.2,0,0.4,0,0.5-0.1c0.6-0.1,1.3-0.1,1.9,0.3
			C138.6,78.5,138.7,78.5,138.9,78.5z M138.2,71.5c0.6-0.1,1.1,0.2,1.4,0.7c0.3,0.4,0.5,1.1,0.6,1.8c0.2,2-0.5,4.4-1.4,4.4
			c-0.1,0-0.2,0-0.3-0.1c-0.6-0.3-1.3-0.3-2-0.3c-0.2,0-0.3,0-0.5,0.1c-0.2,0-0.4,0-0.5,0.1c-1,0.1-2.2,0.1-3.4-1
			c-0.5-0.5-0.7-1-0.5-1.5c0.5-1.8,4-3.5,6.3-4.1C138,71.5,138.1,71.5,138.2,71.5z"/>
	</g>
	<g>
		<path class="st7" d="M65.2,65.7c4.3,1.6,10.4,5.5,7.1,7.1c-3.3,1.5-6.3-1-8.8-0.4C61.1,73,60.4,63.9,65.2,65.7z"/>
		<path class="st8" d="M70.6,73.3c0.6-0.1,1.2-0.2,1.8-0.5c0.7-0.3,1-0.7,1-1.3c-0.1-1.9-4.8-4.7-8.1-5.9c-0.5-0.2-1-0.3-1.4-0.2
			C63,65.5,62.4,66,62,66.9c-0.7,1.6-0.4,3.9,0.3,5c0.3,0.5,0.7,0.7,1.1,0.6l0,0h0.1c0.1,0,0.3-0.1,0.4-0.1c0.9-0.1,1.9,0.2,2.9,0.4
			C68.1,73.1,69.3,73.5,70.6,73.3z M63.8,65.5c0.4,0,0.9,0,1.4,0.2c3.2,1.2,8,4,8,5.8c0,0.5-0.3,0.9-0.9,1.2
			c-0.6,0.3-1.2,0.4-1.8,0.5c-1.3,0.1-2.5-0.2-3.6-0.5c-1-0.3-2-0.5-2.9-0.4c-0.2,0-0.3,0-0.4,0.1h-0.1l0,0c-0.4,0-0.7-0.2-1.1-0.6
			c-0.7-1-1-3.4-0.3-4.9C62.5,66.1,63.1,65.6,63.8,65.5z"/>
	</g>
	<g>
		<g>
			<g>
				<path class="st9" d="M130.6,112.7c0,0-0.1,0.1-0.2,0.1c3-0.4,0.8-0.1,1.5-0.2l0,0l0,0l0,0l0,0l0,0l-0.2-0.1l-0.4-0.2
					c-0.1,0-0.1,0.1-0.2,0.1C131,112.5,130.8,112.6,130.6,112.7z"/>
				<path class="st9" d="M129.1,111.4L129.1,111.4L129.1,111.4H129c-0.8-1.1,1.1,1.5,0.9,1.2l0,0l0,0v-0.1v-0.2l-0.1-0.6l-0.3-0.1
					L129.1,111.4z"/>
				<path class="st9" d="M82.9,141.8L82.9,141.8h0.2l0,0c1,0.1-1.4-0.2-1.1-0.2l0,0l0,0c0.2,0.1,0.3,0.2,0.5,0.3l0,0L82.9,141.8z"/>
				<path class="st9" d="M95.9,138.1L95.9,138.1L96,138l0,0l0,0l0,0c-0.5,0.3,1.2-0.8-1.2,0.8h0.1c0.2,0,0.4,0,0.6-0.1l0.2-0.3
					L95.9,138.1z"/>
				<path class="st9" d="M143.9,117.4c-0.8-3.7-4.7-5.3-4.5-5.1c-2.2-0.9-4.9-1.2-7.4-0.3c-0.2,0.1-0.5,0.2-0.7,0.3l0.4,0.2l0.2,0.1
					l0,0l0,0l0,0l0,0l0,0c-0.7,0.1,1.5-0.2-1.5,0.2c0.1-0.1,0.1-0.1,0.2-0.1c0.2-0.1,0.3-0.2,0.5-0.3c0.1,0,0.1-0.1,0.2-0.1
					l-1.1-0.5l-0.4-0.2l0.1,0.6v0.2v0.1l0,0l0,0c0.2,0.3-1.8-2.3-0.9-1.2l0,0l0,0h0.1l0.4,0.2l0.3,0.1l-0.2-1.1
					c-0.3-1.5-0.7-3-1.1-4.6c-1.2-0.2-2.3-0.9-3.5-1.1c0.2,0.7,0.5,1.5,0.7,2.2c0.5,1.7,0.8,3.4,1.1,5l0.1,0.6v0.3l0,0l0,0
					c1.8,2.4,0.5,0.7,0.9,1.2l0,0l0,0h0.1l0.1,0.1l1.1,0.5l1.1,0.5l0.3,0.1l0.1,0.1h0.1l0,0l0,0c0.7-0.1-1.5,0.2,1.5-0.2l0,0l0,0
					c0,0,0.2-0.1,0.3-0.2c2.1-1,4.3-0.8,6.1-0.1c1.6,0.5,2.6,2,2.9,4c0.3,1.9,0.3,5.9-0.5,9.1c-0.7,3.3-2.5,5.1-2.5,5.1
					c-2.4,2.8-6.4,2.9-10.4,1.6c0,0-1-0.3-2.8-0.7c-0.8-0.2-2.2-0.5-3.5-0.4c-1.2,0.1-2.4,0.2-3.7,0.3c-5.3,0.4-11.5,1-15.5,1.2
					c-2,0.1-4.2,0.3-6.4,0.5l-1.7,0.2h-0.1h-0.1c0.2-0.2-2.2,1.5-1.2,0.8l0,0l0,0l0,0l-0.1,0.1l-0.2,0.3l-0.4,0.6
					c-0.5,0.8-1.2,1.4-1.8,1.8c-2.9,1.4-6.1,0.7-5.9,0.8c-0.5-0.1-0.9-0.3-1.3-0.5c-0.1,0-0.2-0.1-0.2-0.1l0,0l0,0l0,0
					c0.2,0-1.9-0.3-1-0.1l0,0l0,0c0,0,0,0-0.1,0H82c-0.2,0-0.4,0.1-0.7,0.1c-0.9,0-1.8-0.2-2.6-0.6c-1.6-0.8-2.9-2.4-3.8-4.1
					c-0.9-1.9-1.7-4-2.1-6.2c-1.3-5.1-1.6-10.5-1.1-15.8c0.3-3.4,1.1-6.7,2-9.9c0.7-2.2,1.5-4.3,2.4-6.4c2-5.2,3.2-6.5,3.8-7.5
					c-1.1-0.1-1.6-1.9-2.7-1.9c-2.6,5-4.7,10.1-6.3,15.5c-1.7,5.4-2.4,11.1-2.4,16.7c0.3,5.9,1.3,11.9,4.4,17.2c1.3,2.2,3.3,4.3,6,5
					c0.7,0.2,1.3,0.3,2,0.3c0.3,0,0.7,0,1,0l0.5-0.1c-0.2-0.1-0.3-0.2-0.5-0.3l0,0l0,0c-0.2,0,2.1,0.3,1.1,0.2l0,0h-0.1h-0.1
					l-0.3,0.1l0,0c1.1,0.6,2.1,0.8,3.2,0.9c2.4,0.1,4.4,0.2,6.6-1c1-0.5,1.7-1.3,2.3-1.9c0.3-0.3,0.5-0.7,0.8-1l0.1-0.2
					c-0.2,0-0.4,0-0.6,0.1h-0.1c2.3-1.6,0.6-0.4,1.2-0.8l0,0l0,0l0,0l0,0v0.1l-0.2,0.3l-0.2,0.3c4.6-0.4,5.6-0.8,12.3-1
					c3.5-0.1,7.6-0.6,11.4-1c2-0.2,3.7-0.6,5.1-0.2c1.6,0.4,3.1,0.8,4.4,1.2c2.4,0.9,7.5,1.5,11-1.4c3.6-2.9,4.3-7.2,4.6-9.3
					C144.6,124.7,145,120.8,143.9,117.4z"/>
			</g>
		</g>
		<g>
			<g>
				<path class="st9" d="M125.3,119.7c-0.7,2.7-1.8,5.2-2.4,6.5c-0.7,1.1-0.6,1.7-2.1,2.2c-1.4,0.3-4.4,0.3-5.8-0.1
					c-1.5-0.4-4.2-1.3-3.6-2.3c0-1.2,0.5-4.2,0.5-4.2c0.1-1.3,0.3-2.5,0.4-3.8c0.1-1.5,0.2-2.9,0.2-4.4c0-1.1-0.7-6.7-2.1-3.2
					c-0.3,0.7,0.4,2.5,0.4,3.2c0.1,2-0.2,4.2-0.3,6c-0.1,1.7,0.2,2.8-0.3,4c-0.2,0.7-0.5,1.7-0.5,3c0.2,1.9,1.7,2.3,1.6,2.3
					c1.4,0.7,2.7,0.9,4,1.1c-0.1-0.3,5.2,1.4,7.8-0.9c2.2-1.9,3-4.7,3-4.7c0.5-1.2,1.6-2.8,2-4c0.2-0.7,0.6-1.8,0.7-2.5
					c0.3-1.6,1.1-2.3,1.1-3.9c0-1-1.8-3.1-1.9-4.1c0-0.7-0.1-1.4-0.2-2.1c-0.2-1-0.4-2-0.7-3.1c-0.5,0.3-1.1,0.6-1.6,0.9
					c0.4,1.5,0.6,3,0.7,4.6s0,3.1-0.1,4.7C125.9,116.5,125.7,118.1,125.3,119.7z"/>
			</g>
		</g>
		<g>
			<g>
				<path class="st9" d="M105.5,119.9c1.2,1.7,2.3,3.2,2.8,4s0.8,0.9,0.9,2c0.2,0.9-0.5,2.3-1.4,3c-0.8,0.6-2.4,1.8-3,2.2
					c-0.7,0.6-2.5,0.8-2.4,0.7c-0.6,0-1.3-0.2-2.1-0.5c-0.9-0.4-1.7-0.8-2.6-1.3c-0.8-0.4-3.5-6-4.3-6.5c0,0,1.7,5.3,1.4,5.9
					c-0.2,0.3-0.2,0-0.3,0.8c0,0,1.1,0.7,2.3,1.4c1.2,0.7,2.7,1.5,3.9,1.8c1.5,0.4,2.2-0.2,3.2-0.2c1.1,0.1,3.3-1.5,3.3-1.5
					c0.7-0.6,1.4-1.2,2-1.9c0,0,0.6-0.6,1.3-1.7c0.8-1.2,0.5-3,0.2-3.7l0,0c-0.7-1.8-6.6-14.7-8.9-13.7c-1,0.4,0.3,2.4,0.6,3.1
					c0.4,1,0.8,2.1,1.3,3.1C104.2,117.9,104.8,118.9,105.5,119.9z"/>
			</g>
		</g>
		<g>
			<g>
				<path class="st9" d="M94.8,126.7c-0.6-2.3-1.5-4.4-2.2-5.5s-0.9-1.2-1.8-2.6c-0.9-1.6-3.2-2.7-4.5-3.1c-1.3-0.7-4.2-0.3-5.1,0.5
					c-1.1,0.5-3,2.3-2.9,2.4c-0.7,0.9-1.2,1.9-1.5,2.9c-0.4,1.2-0.7,2.4-0.8,3.6c-0.1,1.3,0.1,2.6,0.8,3.5c0.6-0.7,0.2-3.1,0.4-3.9
					c0.6-1.7,0.9-2,1.7-3.8c0.5-1.1,0.7-2,1.6-2.4c0.8-0.5,3-1.4,3.1-1.2c0.8-0.2,1.7-0.2,2.5,0.1c0.1-0.3,3.2,1.7,4,3.4
					c0.9,1.5,2.4,3.8,2.4,3.8c0.3,0.9,0.6,1.9,0.7,2.8c0.1,0.5,0.2,1,0.2,1.5c0.2,1.2,0.3,2.4,0.3,3.7c0,0.8-0.1,1.6-0.2,2.4
					l-0.3,1.6c-0.1,0.8-0.2,1.6-0.4,2.3c0.6,0.1,1.2,0.1,1.8,0.1c0.3-1.3,0.5-2.6,0.6-3.9c0.2-1.3,0.3-2.6,0.2-4
					C95.4,129.5,95.2,128.1,94.8,126.7z"/>
			</g>
		</g>
		<g>
			<g>
				<path class="st9" d="M120.6,125.4c-0.6-0.7-1.4-1.4-2-1.5s-0.6,0-1.5-0.1c-0.9,0-1.6,1-1.9,1.4c-0.1,0.1-0.2,0.2-0.4,0.4l0,0
					l0,0c-0.2,0,2-0.3,1.1-0.2h-0.1l-0.1-0.1l-0.2-0.2c-0.3-0.3-0.6-0.5-0.8-0.5c-0.4-0.2-1.4-0.6-1.4-0.6c-0.5,0-1-0.1-1.4,0.1
					c-0.6,0.1-1.2,0.4-1.5,1c-0.9,1.2,0.2,2.3,1.5,2.6c-0.4-0.8,0.8-3.4,1.8-2.2c0.2,0.3,1,0.7,1,0.7l0.2,0.1l0.1,0.1h0.1l0,0
					c-0.3,0,2.4-0.3,1.3-0.2l0,0l0.2-0.4c-0.1-0.1,0.8-0.9,1.3-0.7c0.4,0.1,1.3,0.2,1.3,0.3c0.2,0.3,0.4,0.5,0.6,0.9l0.1,0.2v0.1
					l0,0c0.4,0.1-0.9-0.3,0.9,0.3h0.1c0.3-0.1,0.5-0.2,0.7,0c0.1,0.1,0.2,0.3,0.2,0.5s0,0.3,0,0.5c0,0.3,0,0.5,0,0.8
					c0.5,0,1,0.1,1.5,0.1c0-0.6,0-1.1-0.1-1.7s-0.5-1.5-1.4-1.6C121.2,125.1,120.9,125.3,120.6,125.4l-0.2,0.1h-0.1
					c0.3,0.1-0.8-0.3,0.7,0.3l0,0l0,0l0,0L120.6,125.4z"/>
			</g>
		</g>
		<g>
			<g>
				<path class="st9" d="M109.6,126.2c0.1,0.2,0,0.4,0,0.5c0.1,0.1,0.2,0,0.1,0.2c-0.2,0.2,0.4,0.2,0.3,0.3
					c-0.1,0.1-0.1,0.3,0.1,0.4c0.1,0,0.1,0.1,0,0.2l0,0l0,0l0,0l0,0c3.1-1.1,0.9-0.3,1.5-0.6l0,0l0,0l0,0l0,0l0,0l0,0l0,0l-0.1-0.2
					v-0.3l-0.2-0.2c0,0-0.2,0.1-0.8,0.3c-0.3,0.1-0.1,0-0.7,0.3c0,0,0.1,0.1,0.1,0.2s-0.1,0.3,0,0.4l0.2,0.1h0.1l0,0l0,0l0,0l0,0
					l0,0c0.6-0.2-1.3,0.5,1.3-0.5l0,0l0,0l0,0l0,0l0.1-0.1c0.3-0.2,0.1-0.4,0.1-0.4l-0.2-0.2c0,0-0.3-0.3-0.2-0.4
					c0.1-0.2-0.4-0.3-0.4-0.3l0.2-0.3v-0.1l0,0l0,0l0,0l0,0c1.5-0.6-2.1,0.8-1.7,0.6l0,0l0,0l0,0l0,0l0,0l0,0l0,0L109.6,126.2v0.3
					v0.1l0.1,0.2l1.6-0.6l-0.2-0.3v-0.3l-0.2-0.1l0,0l0,0l0,0l0,0l0,0l0,0l0,0l0,0l0,0C108.1,126.7,110.2,125.9,109.6,126.2
					L109.6,126.2L109.6,126.2z"/>
			</g>
		</g>
		<g>
			<g>
				<path class="st9" d="M105.9,126.4l-0.1,0.6v0.1l0,0c-0.2,0.1,1.7-0.9,0.9-0.5l0,0h-0.1l-0.3-0.1c-0.3-0.2-0.7-0.3-1-0.3
					c-0.5,0-0.7,0-1.5,0.3c-1,0.5-0.7,1.8-0.7,2.2c-0.1,0.3,0,0.6,0,1c-0.2,0.2,1.4-1.7,0.8-0.9l0,0l0,0h-0.1h-0.1h-0.2
					c-0.1,0-0.3,0-0.4,0c-0.4,0-1.3,0.1-1.3,0.1c-0.4,0.1-0.8,0.2-1.2,0.5c-0.4,0.3-0.9,0.7-1.1,1.3s0,1.2,0.2,1.7
					c0,0,0.2-0.1,0.7-0.3c0.2-0.1,0.1,0,0.6-0.3c0,0-0.2-0.3,0-0.6c0.1-0.3,0.5-0.5,0.8-0.6c1.2-0.8,2.9,0.3,2.8-1.9
					c-0.1,0,0-1.1,0.4-0.9c0.2,0,1.1,0,1.1,0l0.2,0.1c-0.2,0.1,1.6-0.9,0.8-0.5l0,0l0,0v-0.1v-0.1l0.2-0.4l0.2-0.4
					c0.1-0.3,0.2-0.6,0.3-0.7c0.1,0,0.2-0.1,0.4,0c0.1,0,0.2,0.1,0.3,0.2c0.2,0.1,0.4,0.2,0.6,0.3c0.3-0.4,0.6-0.8,0.8-1.2
					c-0.4-0.3-0.9-0.5-1.5-0.6c-0.6-0.2-1.5,0.1-1.9,0.6C106,125.3,106,125.9,105.9,126.4z"/>
			</g>
		</g>
		<g>
			<g>
				<path class="st9" d="M131.7,117c-0.8,1.4-1.5,2.8-1.7,3.6c-1.2,4.7-2.5,11.1,0,15.6c0.4,0.8,1.3,1.5,2.3,1.9c0,0,0-0.2,0.2-0.9
					c0.1-0.3,0.1-0.1,0.1-0.8c0,0.2-1.3-1.5-1.4-1.6c-0.5-0.9-0.7-2-0.8-3.1c-0.3-2.9-0.1-6.6,0.9-9.4c0.4-1.1,0.7-2.9,0.7-2.9
					c0.4-0.6,0.7-1.1,1.1-1.6c0.2-0.3,0.4-0.5,0.6-0.8c0.4-0.6,0.9-1.2,1.6-1.6c0.4-0.2,0.8-0.4,1.3-0.5c0.3-0.1,0.6-0.1,0.9-0.1
					c0.4,0,1,0,1.3,0.1c0.2-0.6,0.2-1.2,0.2-1.8c-1-0.2-2-0.1-3,0.2c-1,0.2-1.8,0.7-2.6,1.3C132.6,115.3,132.1,116.1,131.7,117z"/>
			</g>
		</g>
		<g>
			<g>
				<path class="st9" d="M79.6,120c-1.9,6.2-0.8,12.8,2.7,18.1c0.5,0.7,1,1.5,1.7,2.1s1.5,1.1,2.3,1.6c0,0,0.1-0.2,0.4-0.8
					c0.1-0.3,0.1,0,0.2-0.8c0,0-0.9-0.4-1.6-1.2c-3.6-3.7-5.8-11.5-4.7-16.6c0.1-0.7,0.4-1.3,0.7-1.9c0.2-0.3,0.3-0.6,0.5-0.9
					c0.3-0.7,0.8-1.3,1.5-1.8c0.4-0.3,0.9-0.4,1.4-0.5c0.3,0,0.7-0.1,1-0.1c0.5,0,1.1,0,1.5,0.1c0.1-0.6,0.1-1.2,0.2-1.8
					c-1-0.2-2.1-0.2-3.1,0.1c-1,0.2-2.1,0.7-2.9,1.4C80.3,117.9,79.9,118.9,79.6,120z"/>
			</g>
		</g>
		<path class="st9" d="M83.8,115.5c0,0-0.5-2.3-3-3.4s-5.3,0.9-5.2,1.9c0.1,0.9-0.9,0.4,1.6-0.4S81,114,81,114l1.3,2.4L83.8,115.5z"
			/>
		<path class="st9" d="M86.1,115c0,0-0.9-3.4-1.5-4.3s-1.6-1.2-1.1,0.6c0.5,1.8,0.5,4.5,0.5,4.5s4.5,1.8,3.2-0.3"/>
	</g>
	<g>
		<g>
			<g>
				<path class="st0" d="M121.7,69c-0.4-1.9-0.5-3.4-0.6-4.1c-0.1-3.9,1.5-11.2,6.8-9.8c4.1,1.1,5.6,5.9,5.8,9.9
					c0.2,4.1-0.9,10.2-7.6,8.7c-3.3-0.7-4.5-3.5-4.9-5.4"/>
				<path class="st9" d="M128.8,74.8c1.2-0.1,2.3-0.5,3.2-1.3c2.6-2.2,2.7-6.6,2.6-8.4c-0.1-1.7-0.4-4.2-1.5-6.4s-2.8-3.7-4.8-4.2
					c-1.7-0.4-3.2-0.2-4.4,0.9c-2.8,2.2-3.4,7.3-3.3,9.7c0,0.5,0.1,1.9,0.4,3.6l-0.2,0.1c0.8,3.3,2.7,5.3,5.5,5.9
					C127.1,74.8,128,74.9,128.8,74.8z M126.4,55.8c0.4,0,0.9,0,1.4,0.1c1.7,0.4,3,1.6,3.9,3.4c0.8,1.6,1.3,3.6,1.4,5.8
					c0.1,1.6,0,5.4-2.1,7.2c-1.1,0.9-2.6,1.2-4.6,0.8c-2.1-0.4-3.5-1.9-4.2-4.2l0.2-0.1c-0.4-1.9-0.5-3.4-0.5-3.9
					c-0.1-4.5,1.6-7.5,2.8-8.5C125.2,56.1,125.8,55.8,126.4,55.8z"/>
			</g>
			<path class="st9" d="M128.7,74.1c1.1-0.1,2-0.5,2.8-1.1c2.4-2,2.5-6.2,2.4-7.9c-0.1-2.3-0.6-4.5-1.5-6.1c-1-2.1-2.5-3.4-4.4-3.9
				c-1.5-0.4-2.8-0.1-3.9,0.7c-1.1,0.9-1.9,2.3-2.5,4.3c-0.4,1.5-0.7,3.3-0.6,4.9c0,0.6,0.1,2.1,0.6,4.1h0.1c-0.4-1.9-0.5-3.5-0.6-4
				c0-1.5,0.2-3.3,0.6-4.8c0.5-1.9,1.4-3.3,2.4-4.2c1-0.8,2.3-1.1,3.7-0.7c1.8,0.5,3.3,1.8,4.3,3.8c0.8,1.6,1.3,3.8,1.5,6.1
				c0.1,1.7,0,5.7-2.3,7.7c-1.3,1.1-3,1.4-5.2,0.9c-3.1-0.7-4.4-3.3-4.9-5.3h-0.1c0.5,2.1,1.7,4.8,5,5.4
				C127.1,74.1,128,74.2,128.7,74.1z"/>
		</g>
		<path class="st10" d="M125.2,57.7c3.3,0.8,5.6,2.4,5.8,9.2c0.2,7.1-7,6.7-9.5,3.7S121.6,56.9,125.2,57.7z"/>
		<path class="st0" d="M124.4,60.1c-1.8-0.4-2.3,1.6-2.4,3.4s0.5,2.1,1.4,2.7c1,0.6,2.2,0.6,2.8-0.6
			C126.7,64.4,126.8,60.6,124.4,60.1z"/>
	</g>
	<g>
		<g>
			<path class="st0" d="M74.4,67.4c1,2.5,3,4.4,6.9,3.8c7.5-1.2,6.9-13.6,2.6-17.9c-0.9-0.9-2.1-1.6-3.8-1.2
				c-2.3,0.5-3.9,2.1-4.9,4.2c-0.8,1.7-1.3,3.6-1.5,5.4C73.6,63.4,73.7,65.5,74.4,67.4"/>
			<g>
				<path class="st0" d="M74.4,67.4c1,2.5,3,4.4,6.9,3.8c7.5-1.2,6.9-13.6,2.6-17.9c-0.9-0.9-2.1-1.6-3.8-1.2
					c-2.3,0.5-3.9,2.1-4.9,4.2c-0.8,1.7-1.3,3.6-1.5,5.4C73.6,63.4,73.7,65.5,74.4,67.4"/>
				<path class="st9" d="M80.8,71.9c0.2,0,0.5-0.1,0.7-0.1c2.8-0.4,4.8-2.3,5.8-5.4c1.5-4.5,0.2-10.9-2.8-13.8
					c-1.2-1.1-2.5-1.6-3.9-1.5c-0.2,0-0.4,0-0.6,0.1c-2.3,0.5-4.2,2.1-5.4,4.6c-1,2-1.4,4.2-1.5,5.7c-0.2,2.1,0,4.3,0.7,6
					C75,70.7,77.4,72.2,80.8,71.9z M80.7,52.7c1-0.1,1.9,0.3,2.8,1.1C86,56.3,87.1,62,85.8,66c-0.6,1.7-1.8,3.9-4.6,4.4
					c-3,0.5-5.1-0.6-6.1-3.3c-0.6-1.5-0.8-3.5-0.6-5.3c0.1-1.3,0.5-3.3,1.4-5.2c1-2.2,2.5-3.4,4.4-3.8
					C80.4,52.7,80.5,52.7,80.7,52.7z"/>
			</g>
		</g>
		<path class="st10" d="M79.5,55.6c-3.4-0.3-5.7,2.1-6.3,8.8c-0.6,7.1,7.4,7.5,9.4,4.6C85.2,65.1,83.2,56,79.5,55.6z"/>
		<path class="st0" d="M76.7,57.9c1.5-0.3,1.9,1.4,1.9,2.9s-0.5,1.7-1.3,2.2c-0.8,0.4-1.9,0.4-2.3-0.6
			C74.5,61.5,74.7,58.3,76.7,57.9z"/>
	</g>
	<g>
		<g>
			<path class="st9" d="M143.7,37.2c-2.1-6.5-5.6-12.6-9.7-17.1c-4.2-4.5-8.6-7.6-12-9.3c-6.8-3.1-8-3.5-17.9-5.4
				c-10.2-1.8-23.6,2.5-29.9,6.5c-3.4,1.7-7.9,5.3-11.3,9.7c-3.5,4.3-5.6,9.3-6.6,12.2s-2.4,8.1-2.8,12.6c-0.5,4.5-0.3,8.3-0.3,8.3
				c0.3,6.1,1.2,12.7,5,18.1c4.1,6,9.8,10.6,15.9,14.1c6.2,3.4,13,5.9,20.3,6.3c0,0-0.1-0.4-0.3-1.6C94,91,95,91.5,92.7,90.1
				c0.1,0.1-8.3-0.8-16.6-5.7c-8.3-4.5-16.4-12.5-18.3-20.2c-1.8-8-2.4-12.7-1.3-18.7c0.6-3,1.8-8.5,3.8-12.9
				c1.9-4.4,4.3-7.7,4.3-7.7c3.3-4.7,7.6-8.8,12.8-11.5c0,0.1,5.1-3,12.2-4.3c7.1-1.6,15.8-0.9,20.9,0.6c5.1,1.3,11.4,4,15.8,7.2
				c4.4,3.1,7.2,6.2,7.2,6.2c3.7,4.6,6.3,10.1,8,15.8c0.9,3,1.6,6.1,2,9.2c1.1,7.4,0.9,15-1,22.2c-1.3,4.6-3.6,9.6-7.2,12.6
				c-2.3,2-5,3.7-7.8,4.9c-4.2,1.9-3,1.2-7.6,1.6c0.6,1,4.6,2.2,5.4,3.1c7.8-1.1,5.7-1.7,11.7-7.3c6.3-5.7,9.3-15.8,10.2-23.5
				C147.5,53.4,146.5,45,143.7,37.2z"/>
		</g>
	</g>
	<g>
		<g>
			<path class="st9" d="M162.2,26.3c4.3,3.5,5.4,9.4,5.7,12.3c0.3,3,0.7,3.5-0.1,7.6c-0.7,3.9-2.5,9.2-4,12.1
				c-0.8,1.4-1.9,3.6-2.9,5.7c-0.5,1.1-1,2.1-1.4,3l-0.3,0.7l-0.1,0.2V68l0,0c-0.2-1.4,0.2,1.9,0.2,1.6c0,0,0.1,0.1,0.1,0.2
				c0.2,0.3,0.4,0.6,0.5,0.8c0.6,0.9,0.7,5.8,0.1,7.3c-0.6,1.5-1.5,2.6-1.5,2.6c-1.4,1.8-2.6,1.9-4.7,3c-2.4,1.2-6,0.5-8.7,0.2
				c-2.7-0.1-5.5-0.9-7.8-2.2c0,0-0.2,0.4-0.7,1.4c-0.2,0.5-0.5-0.1-0.1,1.6c0,0,3.5,1.9,8.2,2.3c4.6,0.5,9.9,1.7,12.9-1
				c3.1-2.6,3.9-4.9,5.2-7.7c0.7-1.4,0.8-7.7-0.7-10c-0.1-0.2-0.2-0.3-0.3-0.5l0,0l0,0c0.1,0.8-0.2-1.9,0.2,1.9l0,0v-0.1l0.1-0.2
				l0.3-0.7c0.2-0.4,0.4-0.8,0.5-1.2c0.3-0.7,0.5-1.1,0.5-1.1l3.1-7.3c0,0,1.1-2.4,2.3-5.5c1.3-3.2,1.9-7.2,2.1-9.8
				c0.9-5.2-2.3-12.6-2.6-12.4c-1-2.6-2.6-5.1-4.8-7.1c-1.2-1-2.6-1.8-3.9-2.5c-3.3-1.4-6.8-2.2-10.3-2.4c-2.2-0.2-4.5-0.2-6.7,0.1
				c-1.5,0.2-3,0.4-4.4,0.8c-2.1,0.6-3.7,0.9-4.7,2.9c2.9,3.1,6.7-0.4,9.9-0.7c3.2-0.3,6.4-0.1,9.5,0.7
				C156.3,23.3,159.6,24.4,162.2,26.3z"/>
		</g>
	</g>
	<g>
		<g>
			<path class="st9" d="M37.8,16.2c-5.3,4-8.3,10.4-8.7,14.1c-0.5,3.6-0.3,4.2,0.1,9.1c0.6,4.8,3.3,10.5,4.2,13.9
				c0.5,1.7,1.3,4.2,2.6,6.6l0.1,0.2l0.1,0.1l0,0c-0.1-3.2,0-0.9,0-1.6l0,0l0,0l0,0l-0.1,0.1l-0.3,0.5l-0.4,0.9
				c-0.3,0.6-0.5,1.2-0.7,1.8c-0.4,1.1-0.5,2.2-0.6,3c-0.2,1.5-0.2,4.3,0.7,6.5c0.7,2.2,2,3.8,2,3.8c2,2.5,4.6,4.3,7.4,5.5
				c3.2,1.4,6.6,2,10,2.1c3.4,0,6.6-0.4,9.9-1.3c0,0-0.2-0.4-0.6-1.4c-0.2-0.5,0.3-0.2-1-1.2c0,0-3.7,1-8.1,0.8
				c-4.4-0.1-9.1-1.5-12.1-3.6c-2.9-2-4.8-3.5-5.1-6.1c-0.2-1.3-0.3-3.7,0.2-5.7c0.5-2.1,1.3-3.6,1.3-3.6l0.1-0.2v-0.1l0,0l0,0l0,0
				l0,0c0,0.4-0.1-3.6,0-1.9l0,0l0,0c0,0-0.1-0.2-0.2-0.3l-0.5-0.9c-0.3-0.6-0.6-1.2-0.9-1.8c-0.6-1.3-1.1-2.6-1.6-3.9
				c0.1,0.1-4.1-10.9-4-15.7C31.1,31,33.8,23.9,34,24c1.5-2.3,3.4-4.2,5.6-5.7c1.2-0.8,2.4-1.5,3.6-2c3-1.4,6.3-1.8,9.6-1.2
				c2.1,0.4,4.1,1.2,6.1,2.1c1.3,0.6,2.6,1.3,3.8,2.1c1.9,1.1,1,2.1,2.6,3.4c0.4-0.9,3.5-1.7,3.9-2.7c-3-2.3-6.2-4.2-9.6-5.7
				c-3.4-1.5-7.1-2.7-11-2.6C44.7,11.8,40.9,13.7,37.8,16.2z"/>
		</g>
	</g>
	<g>
		<path class="st11" d="M112.9,76.4c0,0-4.4-6.8-9.8-2.9c-5.4,3.8-3.5,3.2,1.3,3.2C109.1,76.7,116,79,112.9,76.4z"/>
		<g>
			<path class="st12" d="M105.2,72.4L105.2,72.4L105.2,72.4z"/>
			<path class="st12" d="M103.2,76.8L103.2,76.8L103.2,76.8L103.2,76.8z"/>
			<path class="st12" d="M104.8,76.8L104.8,76.8L104.8,76.8z"/>
			<path class="st12" d="M99.8,76L99.8,76L99.8,76z"/>
			<path class="st12" d="M108.2,72.5L108.2,72.5L108.2,72.5L108.2,72.5z"/>
			<path class="st12" d="M108.2,72.5C108.1,72.5,108.2,72.5,108.2,72.5S108.1,72.5,108.2,72.5C108.1,72.5,108.2,72.5,108.2,72.5z"/>
			<path class="st12" d="M112.6,75.8L112.6,75.8L112.6,75.8z"/>
			<path class="st12" d="M99.9,76.3L99.9,76.3L99.9,76.3z"/>
			<path class="st12" d="M112,75.2L112,75.2L112,75.2z"/>
			<path class="st12" d="M103.2,76.8L103.2,76.8C103.2,76.9,103.2,76.8,103.2,76.8z"/>
			<path class="st12" d="M106.4,76.9L106.4,76.9L106.4,76.9L106.4,76.9z"/>
			<path class="st12" d="M113.6,77.1L113.6,77.1L113.6,77.1L113.6,77.1z"/>
			<path class="st12" d="M108.4,77.2C108.4,77.2,108.5,77.2,108.4,77.2c0,0-0.1,0-0.2,0l0,0H108.4z"/>
			<path class="st12" d="M110.7,77.3h-0.2c0.7,0.1,1,0.1,1.7,0.2l0,0c0,0,0.1,0,0.2,0s0.2,0,0.3,0c0.1,0,0.3,0,0.6,0l0,0
				c0,0,0,0,0.1,0c0,0,0,0-0.1,0h-0.1c0.1,0,0.2,0,0.3-0.1l0,0c0,0,0.1,0,0.1-0.1v-0.1v-0.1c0-0.1,0-0.1-0.2-0.3
				c0.1,0.1-0.1-0.1-0.1-0.1s0,0-0.1,0c-0.1-0.1-0.3-0.3-0.4-0.4c0,0,0.1,0.1,0.3,0.2c0.1,0.1,0.3,0.2,0.3,0.3c-0.2-0.2,0,0,0,0l0,0
				c0.1,0.1,0.1,0.1,0.1,0.2l0,0l0,0l0,0l0,0l0,0c0,0.1,0.1,0.1,0.1,0.2l0,0c0,0,0,0.1-0.1,0.1c0,0.1-0.1,0.1-0.2,0.1
				c-0.2,0.1-0.4,0.1-0.4,0.1c-0.1,0-0.3,0-0.5,0c-0.3,0-0.1,0-0.3,0c-0.2,0,0,0,0,0h-0.2c0.1,0,0.1,0,0,0c-0.2,0-0.5,0-0.5-0.1
				c-0.2,0-0.2,0-0.3,0h0.1c-0.1,0,0,0,0,0c-0.1,0-0.8-0.1-0.8-0.1l0,0c0,0,0,0-0.1,0h-0.1h-0.1c-0.1,0,0,0,0,0
				c-0.2,0-0.4-0.1-0.6-0.1h0.2c-0.2,0-0.5,0-0.5-0.1h-0.1c-0.3,0-0.2,0-0.4-0.1h-0.2h0.2c-0.2,0-0.2,0-0.4,0l0,0l0,0l0,0
				c0,0-0.1,0-0.2,0c-0.2,0-0.3-0.1-0.6-0.1h-0.1h-0.2l0,0c0.2,0,0.6,0.1,0.8,0.1l0,0c-0.2,0-0.3,0-0.4-0.1c0,0-0.2,0-0.1,0h-0.1
				c-0.5-0.1-0.5-0.1-1-0.1l0,0c-0.1,0-0.2,0-0.2,0c-0.3,0-0.6,0-0.9,0l0,0c-0.1,0-0.2,0-0.2,0H105c-0.1,0-0.1,0-0.3,0l0,0l0,0l0,0
				l0,0c-0.2,0,0,0-0.2,0c-0.1,0-0.1,0-0.2,0h-0.1c-0.2,0-0.2,0-0.6,0c-0.1,0-0.2,0-0.1,0c-0.1,0-0.1,0-0.2,0l0,0
				c-0.2,0-0.1,0-0.2,0H103l0,0c-0.1,0-0.3,0-0.4,0l0,0h-0.2l0,0h-0.2l0,0c-0.1,0-0.2,0-0.3,0l0,0c-0.3,0-0.5,0-0.8,0l0,0
				c-0.1,0,0,0-0.2,0l0,0c-0.1,0-0.2,0-0.2,0l0,0h-0.2c-0.2,0-0.1,0-0.1,0h-0.1l0,0c-0.1,0-0.1,0-0.2,0l0,0H100c-0.1,0-0.1,0-0.1,0
				s0,0,0.1,0h0.1l0,0c-0.2-0.1-0.2-0.1-0.3-0.1l0.1,0.1c-0.1-0.1-0.1-0.1-0.2-0.2c0,0,0-0.1,0-0.2c0,0,0,0.1,0,0s0,0,0-0.1
				c0,0,0.1-0.2,0.1-0.3l0,0c0,0,0,0,0.1-0.1l0,0l0,0l0,0c0-0.1,0.1-0.1,0.1-0.1l0,0c0,0,0.1-0.1,0.2-0.2s0.2-0.2,0.2-0.2l0,0
				l0.2-0.2c0.1-0.1,0.3-0.2,0.2-0.2c0.3-0.2,0.4-0.3,0.7-0.5c0.1-0.1,0.4-0.3,0.6-0.5c0.2-0.1,0.4-0.3,0.5-0.4
				c0.2-0.1,0.3-0.2,0.6-0.4c0.2-0.2,0.7-0.4,0.9-0.5h0.1c0.1,0,0.2-0.1,0.4-0.2c0.1,0,0.3-0.1,0.4-0.2c0.1,0,0.1,0,0.1,0l0,0
				c0.1,0,0.3-0.1,0.2-0.1l0,0h0.1c0.1,0,0.2,0,0.2,0h-0.1h0.2l0,0c0.2,0,0.3,0,0.5,0c0.1,0,0.3,0,0.4,0s0.1,0,0.2,0s0.1,0,0.2,0
				s0.3,0,0.4,0.1c-0.1,0,0.1,0,0.1,0c0.2,0,0.3,0.1,0.4,0.1l0,0h0.1c0.1,0,0.1,0,0.1,0c-0.1-0.1,0.2,0.1,0,0c0.3,0.1,0.6,0.3,1,0.4
				c0.3,0.2,0.7,0.4,1,0.6l0,0c0.2,0.1,0.3,0.3,0.4,0.3c0.1,0.1,0.2,0.2,0.3,0.2c0.1,0.1,0.2,0.2,0.2,0.1c0.1,0.1,0.2,0.2,0.4,0.4
				c0.1,0,0.4,0.5,0.4,0.5l0,0c0.2,0.2,0.4,0.4,0.6,0.7l0,0c0,0,0.1,0.1,0.2,0.3c0.1,0.1,0.2,0.3,0.2,0.3s0,0-0.1-0.1l-0.1-0.1
				c0,0-0.1-0.1-0.2-0.2s-0.2-0.2-0.2-0.2s-0.2-0.3-0.5-0.6c-0.2-0.3-0.5-0.5-0.5-0.5l-0.1-0.1c-0.1-0.1-0.2-0.2-0.3-0.3
				c-0.1-0.1-0.2-0.2-0.3-0.3c-0.1-0.1-0.1-0.1-0.1-0.1s-0.6-0.5-1.2-0.8c-0.3-0.2-0.6-0.3-0.9-0.4s-0.4-0.1-0.4-0.1l-0.2-0.1
				c-0.1,0-0.3-0.1-0.4-0.1c-0.2,0-0.3,0-0.5-0.1c-0.3,0-0.7,0-1,0l0,0c-0.2,0-0.2,0-0.2,0c-0.8,0.1-1.5,0.4-2.2,0.9
				c-0.3,0.2-0.7,0.4-1,0.7c-0.3,0.2-0.6,0.5-0.9,0.7c-0.1,0.1-0.4,0.3-0.5,0.4c-0.2,0.1-0.4,0.3-0.6,0.5s-0.4,0.3-0.5,0.5l0,0
				c0,0,0,0-0.1,0.1V76l0,0c0,0.1,0,0.1,0.1,0.2s0.3,0.1,0.5,0.1l0,0c0.4,0,0.9,0,1.3,0s0.9,0,1.3,0s0.9,0,1.3,0s0.9,0,1.3,0.1
				c0.8,0,1.8,0.2,2.7,0.3C108.7,77,110.6,77.3,110.7,77.3z"/>
			<path class="st12" d="M113.5,77.4L113.5,77.4L113.5,77.4z"/>
			<path class="st12" d="M109.6,77.3L109.6,77.3L109.6,77.3L109.6,77.3z"/>
			<path class="st12" d="M112.1,77.7C112,77.7,112,77.7,112.1,77.7C112.1,77.7,112.1,77.7,112.1,77.7z"/>
			<path class="st12" d="M113.2,76.8L113.2,76.8C113.3,76.9,113.3,76.9,113.2,76.8C113.3,76.9,113.3,76.9,113.2,76.8z"/>
			<path class="st12" d="M113.5,77L113.5,77L113.5,77z"/>
		</g>
	</g>
	<g>
		<path class="st11" d="M111.4,84.4c0,0-3.9-5.9-8.6-2.6c-4.7,3.4-3.1,2.8,1.1,2.8C108.1,84.7,114.1,86.7,111.4,84.4z"/>
		<g>
			<path class="st12" d="M104.7,80.9L104.7,80.9L104.7,80.9z"/>
			<path class="st12" d="M102.9,84.8L102.9,84.8C102.9,84.8,102.9,84.9,102.9,84.8L102.9,84.8z"/>
			<path class="st12" d="M104.4,84.8L104.4,84.8L104.4,84.8z"/>
			<path class="st12" d="M100,84.1L100,84.1L100,84.1z"/>
			<path class="st12" d="M107.3,81L107.3,81L107.3,81L107.3,81z"/>
			<path class="st12" d="M107.3,81L107.3,81L107.3,81C107.2,81,107.3,81,107.3,81z"/>
			<path class="st12" d="M111.2,83.9L111.2,83.9L111.2,83.9z"/>
			<path class="st12" d="M100.1,84.3L100.1,84.3L100.1,84.3z"/>
			<path class="st12" d="M110.7,83.4L110.7,83.4L110.7,83.4z"/>
			<path class="st12" d="M103,84.9L103,84.9L103,84.9z"/>
			<path class="st12" d="M105.7,84.9L105.7,84.9L105.7,84.9z"/>
			<path class="st12" d="M112,85.1L112,85.1L112,85.1L112,85.1z"/>
			<path class="st12" d="M107.5,85.1L107.5,85.1c0,0-0.1,0-0.2,0l0,0H107.5z"/>
			<path class="st12" d="M109.5,85.2h-0.2c0.6,0.1,0.9,0.1,1.4,0.2l0,0c0,0,0.1,0,0.2,0s0.2,0,0.3,0c0.1,0,0.3,0,0.5,0l0,0
				c0,0,0,0,0.1,0c0,0,0,0-0.1,0h-0.1c0.1,0,0.2,0,0.2,0l0,0l0,0v-0.1v-0.1c0-0.1,0-0.1-0.1-0.2c0.1,0.1-0.1-0.1,0-0.1l0,0
				c-0.1-0.1-0.3-0.3-0.3-0.3s0.1,0.1,0.2,0.2s0.3,0.2,0.3,0.3c-0.1-0.1,0,0,0,0l0,0c0.1-0.1,0.1-0.1,0.1,0l0,0l0,0l0,0l0,0l0,0
				c0,0,0.1,0.1,0.1,0.2l0,0v0.1c0,0-0.1,0.1-0.2,0.1s-0.3,0.1-0.4,0.1s-0.3,0-0.4,0c-0.2,0-0.1,0-0.2,0c-0.2,0,0,0,0,0h-0.2
				c0.1,0,0,0,0,0c-0.2,0-0.4,0-0.4-0.1c-0.2,0-0.2,0-0.3,0h0.1c-0.1,0,0,0,0,0c-0.1,0-0.7-0.1-0.7-0.1l0,0c0,0,0,0-0.1,0h-0.1h-0.1
				c-0.1,0,0,0,0,0c-0.1,0-0.3-0.1-0.5-0.1h0.2c-0.1,0-0.4,0-0.4-0.1h-0.1c-0.3,0-0.2,0-0.3-0.1h-0.2h0.1c-0.1,0-0.2,0-0.3,0l0,0
				l0,0l0,0c0,0-0.1,0-0.2,0s-0.3,0-0.5-0.1h-0.1h-0.2l0,0c0.2,0,0.5,0.1,0.7,0.1l0,0c-0.1,0-0.3,0-0.4-0.1c0,0-0.2,0-0.1,0h-0.1
				c-0.4-0.1-0.4-0.1-0.9-0.1l0,0c-0.1,0-0.2,0-0.2,0c-0.3,0-0.6,0-0.8,0l0,0c-0.1,0-0.1,0-0.2,0h-0.1c-0.1,0-0.1,0-0.2,0l0,0l0,0
				l0,0l0,0c-0.2,0,0,0-0.2,0c-0.1,0-0.1,0-0.2,0h-0.1c-0.2,0-0.2,0-0.5,0c-0.1,0-0.2,0-0.1,0c-0.1,0-0.1,0-0.2,0l0,0
				c-0.1,0-0.1,0-0.2,0h-0.1l0,0c-0.1,0-0.2,0-0.4,0l0,0h-0.1l0,0H102l0,0c0,0-0.2,0-0.3,0l0,0c-0.2,0-0.4,0-0.7,0l0,0
				c-0.1,0,0,0-0.1,0l0,0c-0.1,0-0.1,0-0.2,0l0,0h-0.1c-0.1,0-0.1,0-0.1,0h-0.1l0,0c-0.1,0-0.1,0-0.2,0l0,0h-0.1c-0.1,0-0.1,0-0.1,0
				s0,0,0.1,0h0.1l0,0c-0.1-0.1-0.2-0.1-0.3-0.1l0.1,0.1c-0.1,0-0.1-0.1-0.2-0.1v-0.1c0,0,0,0.1,0,0s0,0,0-0.1c0,0,0.1-0.1,0.1-0.2
				l0,0c0,0,0,0,0.1-0.1l0,0l0.1-0.1l0.1-0.1l0,0c0,0,0.1-0.1,0.2-0.2s0.2-0.2,0.2-0.2l0,0c0,0,0.2-0.2,0.2-0.1
				c0.1-0.1,0.3-0.2,0.2-0.2c0.2-0.2,0.4-0.3,0.6-0.5c0.1-0.1,0.4-0.3,0.5-0.4c0.4-0.2,0.6-0.4,1-0.6c0.2-0.2,0.6-0.3,0.8-0.5h0.1
				c0.1,0,0.2-0.1,0.3-0.1c0.1,0,0.3-0.1,0.4-0.1s0.1,0,0.1,0l0,0c0.1,0,0.2-0.1,0.2-0.1l0,0h0.1c0.1,0,0.2,0,0.2,0l0,0h0.1l0,0
				c0.2,0,0.3,0,0.4,0s0.2,0,0.4,0h0.2c0.1,0,0.1,0,0.2,0s0.2,0,0.4,0.1c-0.1,0,0.1,0,0.1,0c0.2,0,0.3,0.1,0.4,0.1l0,0h0.1
				c0.1,0,0.1,0,0.1,0c-0.1-0.1,0.1,0.1,0,0c0.3,0.1,0.6,0.2,0.9,0.4c0.3,0.2,0.6,0.3,0.8,0.5l0,0c0.1,0.1,0.3,0.2,0.4,0.3
				c0.1,0.1,0.2,0.2,0.2,0.2c0.1,0.1,0.2,0.2,0.2,0.1c0.1,0.1,0.2,0.2,0.3,0.3c0.1,0,0.4,0.4,0.4,0.4l0,0c0.2,0.2,0.3,0.4,0.5,0.6
				l0,0c0,0,0.1,0.1,0.1,0.2c0.1,0.1,0.1,0.3,0.1,0.3s0,0-0.1,0h-0.1c0,0-0.1-0.1-0.2-0.2s-0.2-0.2-0.2-0.2s-0.2-0.3-0.4-0.5
				c-0.2-0.2-0.4-0.5-0.4-0.5s-0.2-0.2-0.4-0.3c-0.1-0.1-0.2-0.2-0.3-0.2c-0.1-0.1-0.1-0.1-0.1-0.1s-0.5-0.4-1-0.7
				c-0.3-0.1-0.6-0.3-0.8-0.4c-0.2-0.1-0.4-0.1-0.4-0.1l-0.2-0.1c-0.1,0-0.3,0-0.4-0.1c-0.1,0-0.3,0-0.4,0c-0.3,0-0.6,0-0.8,0l0,0
				c-0.1,0-0.1,0-0.2,0c-0.7,0.1-1.3,0.4-1.9,0.8c-0.3,0.2-0.6,0.4-0.8,0.6c-0.3,0.2-0.5,0.4-0.8,0.6c-0.1,0.1-0.4,0.3-0.5,0.4
				c-0.2,0.1-0.3,0.3-0.5,0.4s-0.3,0.3-0.4,0.4l0,0c0,0,0,0,0,0.1v0.1l0,0v0.1c0,0,0,0.1,0.1,0.1s0.3,0.1,0.4,0.1l0,0
				c0.4,0,0.8,0,1.2,0c0.4,0,0.8,0,1.1,0c0.8,0,1.5,0,2.3,0.1c0.7,0,1.6,0.2,2.4,0.3C107.7,84.9,109.4,85.2,109.5,85.2z"/>
			<path class="st12" d="M111.9,85.3L111.9,85.3L111.9,85.3z"/>
			<path class="st12" d="M108.5,85.3L108.5,85.3L108.5,85.3z"/>
			<path class="st12" d="M110.7,85.6C110.6,85.6,110.6,85.5,110.7,85.6L110.7,85.6z"/>
			<path class="st12" d="M111.7,84.8L111.7,84.8C111.7,84.9,111.8,84.9,111.7,84.8C111.8,84.9,111.7,84.9,111.7,84.8z"/>
			<path class="st12" d="M111.9,84.9L111.9,84.9L111.9,84.9z"/>
		</g>
	</g>
	<g>
		<path class="st11" d="M108.5,93.4c0,0-4.6,2.2-7.8-1.6c-3.2-3.8-2-2.8,1.5-1.3C105.8,92,111.3,93.1,108.5,93.4z"/>
		<g>
			<path class="st12" d="M101.9,92.8C102,92.8,102,92.8,101.9,92.8L101.9,92.8z"/>
			<path class="st12" d="M101.6,90.4L101.6,90.4L101.6,90.4L101.6,90.4z"/>
			<path class="st12" d="M102.8,90.9L102.8,90.9L102.8,90.9z"/>
			<path class="st12" d="M99,89.3L99,89.3L99,89.3z"/>
			<path class="st12" d="M104,93.8L104,93.8L104,93.8L104,93.8z"/>
			<path class="st12" d="M104,93.8C103.9,93.8,104,93.8,104,93.8C103.9,93.8,103.9,93.8,104,93.8C103.9,93.8,103.9,93.8,104,93.8z"
				/>
			<path class="st12" d="M108,93.5L108,93.5L108,93.5z"/>
			<path class="st12" d="M99.1,89.1L99.1,89.1L99.1,89.1z"/>
			<path class="st12" d="M107.4,93.7L107.4,93.7L107.4,93.7z"/>
			<path class="st12" d="M101.6,90.4L101.6,90.4L101.6,90.4z"/>
			<path class="st12" d="M103.9,91.3L103.9,91.3L103.9,91.3z"/>
			<path class="st12" d="M109.2,93.2L109.2,93.2C109.2,93.2,109.3,93.2,109.2,93.2C109.3,93.2,109.2,93.2,109.2,93.2z"/>
			<path class="st12" d="M105.4,91.7L105.4,91.7c0,0-0.1,0-0.2-0.1l0,0L105.4,91.7z"/>
			<path class="st12" d="M107.1,92.1h-0.2c0.5,0.2,0.8,0.2,1.2,0.4l0,0c0,0,0.1,0,0.2,0.1c0.1,0,0.3,0.1,0.7,0.2l0,0c0,0,0,0,0.1,0
				c0,0,0,0-0.1,0h-0.1c0.1,0,0.1,0.1,0.2,0.1l0,0c0,0,0.1,0,0.1,0.1l0.1,0.1v0.1c0,0,0,0,0,0.1v0.1c0,0.1-0.1,0.1-0.1,0.1
				s-0.1,0-0.2,0.1c0.1,0-0.1,0-0.1,0s0,0-0.1,0s-0.4,0.1-0.4,0.1s0.1,0,0.3-0.1c0.1,0,0.3-0.1,0.3-0.1c-0.2,0.1,0,0,0,0l0,0
				c0.1,0,0.1-0.1,0.1-0.1l0,0l0,0l0,0l0,0l0,0v-0.1v-0.1l0,0c0,0-0.1-0.1-0.2-0.2s-0.2-0.1-0.3-0.1c-0.1,0-0.2-0.1-0.3-0.1
				c-0.2-0.1-0.1,0-0.2-0.1c-0.1,0,0,0,0,0h-0.2c0.1,0,0,0,0,0c-0.1,0-0.3-0.1-0.4-0.1c-0.2,0-0.2,0-0.3-0.1h0.1c-0.1,0,0,0,0,0
				c-0.1,0-0.6-0.1-0.6-0.2l0,0c0,0,0,0,0-0.1h-0.1h-0.1c-0.1,0,0,0,0,0c-0.1,0-0.3-0.1-0.4-0.1h0.2c-0.1,0-0.4-0.1-0.4-0.1h-0.1
				c-0.3-0.1-0.2-0.1-0.3-0.1h-0.1h0.1c-0.1,0-0.2,0-0.3-0.1l0,0l0,0l0,0c0,0-0.1,0-0.2-0.1c-0.1,0-0.2-0.1-0.4-0.1l0,0h-0.2l0,0
				c0.1,0,0.4,0.1,0.6,0.2l0,0c-0.1,0-0.2-0.1-0.3-0.1h-0.1h-0.1c-0.4-0.1-0.4-0.1-0.8-0.2l0,0c-0.1,0-0.1-0.1-0.2-0.1
				c-0.2-0.1-0.5-0.2-0.6-0.2l0,0c0,0-0.1,0-0.1-0.1h-0.1c-0.1,0-0.1,0-0.2-0.1l0,0l0,0l0,0l0,0c-0.2-0.1,0,0-0.2-0.1
				c-0.1,0-0.1,0-0.1-0.1h-0.1c-0.2-0.1-0.2-0.1-0.4-0.2c-0.1,0-0.2,0-0.1,0c-0.1-0.1,0,0-0.2-0.1l0,0c-0.1,0-0.1,0-0.1-0.1
				c0,0,0-0.1-0.1-0.1l0,0c-0.1,0-0.2-0.1-0.3-0.1l0,0l-0.1-0.1l0,0l-0.2-0.1l0,0l-0.2-0.1l0,0c-0.2-0.1-0.3-0.2-0.6-0.3l0,0
				c-0.1,0,0,0-0.1-0.1l0,0c-0.1-0.1-0.1,0-0.2-0.1l0,0h-0.1c-0.1,0-0.1,0-0.1,0h-0.1l0,0c-0.1,0-0.1,0-0.2-0.1l0,0l-0.2-0.1h0.1
				l0,0c-0.1-0.1-0.1-0.1-0.2-0.1l0,0c-0.1,0-0.1,0-0.2,0c0,0,0.1,0,0,0c0,0,0,0-0.1,0c0,0,0,0-0.1,0h-0.1l0,0l0,0l0,0l0,0l0,0l0,0
				l0,0c0,0,0,0.1,0.1,0.1c0,0.1,0.1,0.2,0.1,0.2l0,0l0.1,0.2c0,0.1,0.2,0.2,0.1,0.2c0.1,0.2,0.2,0.3,0.4,0.5
				c0.1,0.1,0.3,0.3,0.4,0.4c0.2,0.3,0.4,0.5,0.6,0.8c0.2,0.2,0.4,0.4,0.6,0.6v0.1c0.1,0.1,0.1,0.1,0.2,0.2l0.1,0.1l0.1,0.1l0.1,0.1
				l0,0c0.1,0,0.2,0.1,0.2,0.1l0,0l0.2,0.1l0,0l0.1,0.1l0,0c0.2,0.2,0.4,0.2,0.6,0.3c0.1,0,0.2,0.1,0.3,0.1c0.1,0,0.2,0.1,0.3,0.1
				c-0.1,0,0.1,0,0.1,0c0.1,0,0.2,0.1,0.3,0.1l0,0c0,0,0,0,0.1,0h0.1c-0.1,0,0.1,0,0,0c0.5,0.1,1.1,0.2,1.6,0.1l0,0
				c0.1,0,0.3,0,0.4,0s0.2,0,0.3,0c0.1,0,0.2,0,0.2,0c0.1,0,0.2,0,0.4-0.1c0.1,0,0.5-0.1,0.5-0.1l0,0c0.2-0.1,0.4-0.1,0.6-0.2l0,0
				c0,0,0.1,0,0.2-0.1c0.1,0,0.2-0.1,0.2-0.1s0,0,0,0.1v0.1c0,0-0.1,0.1-0.2,0.1c-0.1,0.1-0.2,0.1-0.2,0.1s-0.3,0.1-0.6,0.2
				c-0.3,0.1-0.6,0.1-0.6,0.1s-0.2,0-0.5,0.1c-0.1,0-0.2,0-0.3,0c-0.1,0-0.1,0-0.1,0s-0.6,0-1.1,0c-0.1,0-0.3,0-0.4-0.1
				c-0.1,0-0.1,0-0.2,0s-0.1,0-0.2,0s-0.2,0-0.2-0.1c-0.1,0-0.1,0-0.1,0l-0.2-0.1c-0.4-0.1-0.9-0.4-1.4-0.6l0,0
				c-0.1-0.1-0.1-0.1-0.1-0.1c-0.5-0.3-1-0.8-1.4-1.2c-0.4-0.5-0.8-0.9-1.1-1.3c-0.1-0.1-0.3-0.3-0.3-0.4c-0.1-0.2-0.2-0.3-0.3-0.5
				c0-0.1-0.1-0.2-0.1-0.3v-0.1V89c0-0.1,0.1-0.1,0.1-0.2l0,0h0.1h0.1l0,0l0,0c0.2,0,0.5,0.1,0.7,0.2l0,0c1.3,0.5,2.4,1.1,3.7,1.6
				c0.6,0.2,1.3,0.5,2,0.7C105.6,91.6,107,92,107.1,92.1z"/>
			<path class="st12" d="M109.2,92.9L109.2,92.9C109.2,92.8,109.2,92.9,109.2,92.9z"/>
			<path class="st12" d="M106.2,92L106.2,92L106.2,92z"/>
			<path class="st12" d="M108.1,92.6C108,92.6,108,92.6,108.1,92.6C108,92.6,108.1,92.6,108.1,92.6z"/>
			<path class="st12" d="M108.9,93.5L108.9,93.5C109,93.4,109,93.4,108.9,93.5C109,93.4,109,93.5,108.9,93.5z"/>
			<path class="st12" d="M109.1,93.3L109.1,93.3L109.1,93.3z"/>
		</g>
	</g>
	<path class="st13" d="M92.8,92c0,0,37,22.1,71.6,15.1c32.5-6.5,62.5-63.7,55.8-72.3c-5.3-6.8-6.7-5.5-6.7-5.5l-3.1,1.3
		c-1.9,1.8-1.7,1.6-2.7,4.2c-1.1,2.6-0.8,2.5-1.6,6.8c-0.4,2.1-1.8,8.9-8.9,19c-7.8,11.1-5.8,9.3-18.5,24.1
		c-14.1,16.4-39,15.1-53.9,5.6"/>
</g>
<g class="st14">
	<path class="st0" d="M235.7,99.7v-1.8l0.3-0.2V72.8h-1.4c-2,0.6-4.1,1.1-6.2,1.5c-2.1,0.4-4.3,0.5-6.6,0.2v-1.1
		c2.3-0.5,4.6-1.1,7-1.6c2.3-0.5,4.8-0.9,7.2-1.2V57.1h5.9l0.2,0.8v11.6h1.6c2.9-0.5,6-0.6,9.2-0.5v1.1l-10.7,1.3l-0.2,7.5l0.2,1.5
		l7.7,2.2l0.2,1.3h-5.6l-2.2-0.6v10.9l-0.4,5.5H235.7z M224.7,93.1l-1.8-1.1l-0.2-2.2c0.4-2.2,1-4.3,1.7-6.3c0.7-2,1.5-4,2.4-5.9
		h5.9v1.1c-0.9,1.9-1.7,3.8-2.4,5.8c-0.7,2-1.2,4-1.5,6.2l0.6,0.9h2.9v0.9C230,93.2,227.4,93.4,224.7,93.1z M252.8,94l-0.5-0.2
		l-0.2-1.6c0.7-1.7,1.7-3.4,2.8-5c1.2-1.6,2.3-3.2,3.5-4.8l6.3-0.2v1.1l-0.9,1.1h-0.4l-4.6,7.6h3.1v1.1
		C259.2,94,256.2,94.3,252.8,94z M269.6,100.5v-4.1l0.2-0.2V83.5l0.2-7h-1.3c-2.6,0.5-5.3,1-7.9,1.8c-2.6,0.7-5.4,1-8.3,0.7v-1.1
		c2.7-0.8,5.6-1.4,8.6-2c3-0.6,5.9-1.1,8.8-1.5l0.3-10.9h-0.7c-2.8,0.4-5.6,0.5-8.5,0.4v-1.1l9.4-1.3V51.2h5.9l0.3,7.8l-0.3,1.6h1.4
		l6.5-0.2v1.1l-7.9,0.9l-0.2,11.1h0.9c3.4-0.5,6.8-0.7,10.5-0.6v1.1l-11.4,1.5l-0.2,7.4h3.8l0.7,1.5c2.3,1.6,5.3,3.8,8.8,6.5
		l2.2,0.8l0.2,1.4h-6.3c-4.1-2.7-7.3-4.7-9.5-6l-0.4,13.5H269.6z M254.5,69.7l-1.3-1.6v-4.4c0.6-2.4,1.3-4.8,2.1-7.2
		c0.8-2.3,1.6-4.7,2.6-7h5.9l0.2,1.2c-1,2.4-1.9,5-2.8,7.6c-0.9,2.6-1.5,5.3-1.9,8.1l0.9,2l0.6,0.2v1.1H254.5z"/>
	<path class="st0" d="M297,79.1V78c3-1.2,6.1-2.2,9.2-3.1c3.1-0.9,6.3-1.5,9.6-2h8.7l1.6,0.4c0.7,0.7,0.9,1.7,0.6,2.9l-0.6,1.6
		L320,78v-1.1l0.7-1.8c-0.5-0.6-1.1-0.8-2-0.7c-3.7,0.6-7.2,1.6-10.5,3C304.8,78.8,301.1,79.4,297,79.1z M298.5,96.6v-1.1l10.1-3.1
		v-1.1c-0.5-2.5-0.6-5.1-0.4-7.9l0.2-2.6h6.1v1.7l-0.3,7l0.3,0.9h0.6c2.8-1,5.8-1.4,9.2-1.1v1.1c-4.4,1.2-8.6,2.5-12.7,4
		S303.2,96.7,298.5,96.6z M347.9,99.9l-0.2-0.7L347,99l-1.8-2.9l-0.6-0.4c-3.9-5.5-7.1-11.4-9.3-17.5c-2.3-6.1-4-12.4-5.3-19h-2
		c-3.7,0.4-7.3,0.9-10.9,1.6c-3.6,0.7-7.2,1-11,1v-1.1c3.8-0.7,7.6-1.4,11.6-1.9c3.9-0.6,7.9-1,11.8-1.3v-0.4l-1.1-7.4l0.2-0.5h5.9
		c0.1,2.6,0.4,5.2,0.9,7.6h2.4c1.9-0.3,3.8-0.4,5.8-0.4s4,0,6,0v0.9l-13.5,1.3v1.1c1.5,7.2,3.7,14.2,6.7,21
		c3,6.8,6.6,13.2,10.8,19.2H347.9z M349.9,51.6v-0.2c-1.6-3-2.9-6.2-3.9-9.4h5.9c1.6,3.1,2.9,6.3,3.9,9.6H349.9z"/>
	<path class="st0" d="M362.9,78.6v-1.1l2.2-2.2l1.1-1.3l16.6-17.7l7-7c2-1.3,4.5-1.7,7.4-1.3v1.1l-1.4,1.4l-0.8,0.8l-2.2,2.2
		l-6.8,7.2l-7.2,7.7l-8.1,8.5l-1.1,1.3C367.5,78.7,365.2,78.8,362.9,78.6z M382.1,97.2l-1.5-0.6c-0.6-0.9-0.8-1.9-0.7-3.3
		c1-2.9,2.5-5.7,4.4-8.3l0.7-0.2l1.5-2.9h-1.5l-7.4,0.2v-1.1c3.5-0.6,7-1.1,10.6-1.6c3.6-0.5,7.2-0.9,10.8-1.2h9.9l0.4,0.2v1.1
		c-2.8-0.1-5.4-0.1-8,0.1c-2.5,0.2-5.1,0.6-7.6,1c0,1.1-0.4,2.1-1.3,3l-0.7,0.3c-1,1.7-2.1,3.4-3.2,5.1c-1.2,1.7-2,3.5-2.4,5.6
		l0.2,0.9h1.3c2.8-0.7,5.5-1.5,8.2-2.2c2.7-0.7,5.7-1,8.9-0.7v1.1c-3.6,1-7.3,2-10.9,2.8C390,97.3,386.2,97.5,382.1,97.2z
		 M394.5,72.4v-1.2c1-0.4,1.7-1.1,2-2.2h-0.9c-1.7,0.6-3.6,1-5.5,1.2c-2,0.2-4,0.3-6.2,0.1v-1.1l8.7-1.8h9.7L403,68l0.3,1.6
		l-1.1,1.5h-0.5l-0.2,0.7C399.4,72.4,397,72.7,394.5,72.4z M422.1,73.2c-2.2-1.1-4.4-2.3-6.6-3.6s-4.4-2.8-6.5-4.7l-8.7-5.6
		l-2.2-1.8l-4.1-2.4V54h6.1l7.9,5l7.4,5.2c2.3,1.7,4.5,3.2,6.7,4.5c2.1,1.2,4.3,2.4,6.5,3.4v1.1H422.1z M411.3,97l-1.5-1.1v-0.4
		l-2-1.1l-2.7-2.4c-1.9-2-3.2-4.2-4.1-6.7h6.1l3.1,4.8l0.7,0.2l6.5,5.6V97H411.3z"/>
	<path class="st0" d="M448.6,100.2c-1-0.4-1.7-1.1-2-2.2l-0.5-8.3l0.5-3.9h-0.5l-0.8,0.6l-0.9,1.6l-0.7,0.2l-2.6,3.7l-1.8,1.7h-5.9
		v-1.1L434,92l3.1-3.5h0.4l1.3-2.2l3.1-3.5h0.5l1.3-2.2l1.5-1.8h0.5l1.3-2.2l2-2.4h0.4c0.9-1.6,1.9-3.1,3.1-4.7
		c1.2-1.5,1.8-3.2,1.9-5.1l-1.8-0.4c-3.2,0.7-6.3,1.7-9.3,2.9c-3,1.2-6.3,1.7-9.9,1.4v-1.3c2.5-0.9,5-1.8,7.6-2.7
		c2.5-0.9,5.2-1.5,8-1.8v-0.4h-0.2v-2.7l1.3-16.8h5.9v4.2c-0.3,2.6-0.5,5.3-0.7,7.9c-0.1,2.6-0.4,5.2-0.9,7.6
		c2.2-0.3,4.1,0.1,5.7,1.1c0.4,0.9,0.5,1.9,0.4,3.1c-1,2.6-2.4,5-4.1,7.2l-0.7,0.2l-1.7,2.9l-2,2.7l1.8,0.2v0.9l-0.3,1.7
		c2.4-0.1,4.6,0,6.6,0.5l4.4,4.4v1.1h-5.9l-0.9-0.7v-0.4l-1.3-0.7l-1.1-1.1l-1.1-1.1l-1.1-0.9c-0.1,1.9-0.3,3.8-0.5,5.7
		c-0.2,1.9-0.3,3.9-0.1,5.9l1.1,3.5l1.8,0.4v1.1L448.6,100.2z M460.2,95.7v-1.1l15.5-2.2V78.9h-1.8c-3.4,0.6-6.8,0.8-10.5,0.7v-1.2
		l12-1.7l0.2-0.2v-12l-0.7-8.1h6.1l0.4,3.7V76h1.6l10.1-0.4v1.1l-11.6,1.1v13.9h0.7c2.5-0.3,5-0.5,7.6-0.6s5.1-0.2,7.8-0.2V92
		c-6.3,0.3-12.5,0.9-18.7,1.8C472.7,94.8,466.4,95.4,460.2,95.7z"/>
	<path class="st0" d="M536.9,98.8l-3.1-1.3l-0.2-1.4l5.6-0.2c2-4.2,3.8-8.5,5.2-12.9c1.5-4.4,2.5-8.9,3.1-13.5l-1.1-3.1
		c-1.5-1.2-3.1-1.8-5-1.8c-2.4,0.5-4.8,1-7.1,1.5c-2.3,0.6-4.6,1.2-6.9,1.9c-1.2,4.1-2.3,8.2-3.5,12.3c-1.2,4.2-2.2,8.3-3,12.6h-6.1
		v-1.3l5.4-20.7h-0.7c-3,1.2-6,2.7-8.8,4.5c-2.8,1.8-6.2,2.5-10,2v-1.1c3.4-1.9,6.7-3.6,10.2-5.2c3.4-1.6,6.9-3.1,10.4-4.4l3.7-14.4
		h6.1v1.1c-0.7,1.8-1.3,3.6-1.7,5.6s-0.8,3.9-1.1,5.7h0.9c2.6-0.7,5.4-1.2,8.3-1.5h9.1c2,0,3.8,0.6,5.2,1.7c1.5,1.8,2,3.8,1.8,6.1
		c-0.9,4.7-2,9.2-3.5,13.7c-1.5,4.4-3.4,8.8-5.7,13C542.2,98.8,539.6,99.1,536.9,98.8z"/>
	<path class="st0" d="M559.7,100.8v-1.1l2.2-2l12-12.5l5.5-6.3l2.2-2.4l4.4-5l3.9-4.1c1.7-2.2,2.9-4.7,3.5-7.5l-0.2-0.8
		c-1.6-1.2-3.5-1.6-5.7-1.4c-4.6,0.6-9.1,1.6-13.5,3.1c-4.4,1.5-9,2.1-14,2v-1.1c3.8-1,7.6-2,11.4-2.9c3.9-1,7.8-1.7,11.9-2.3h11.6
		l3.9,1.6c0.7,1.1,1,2.4,0.7,3.9l-2.9,5.2l-2.2,2.9l-3.3,3.9l-4.8,5.2l-1.5,1.8l1.3,0.8l0.9,0.9l2.9,3.1v0.5l2.4,1.7l0.2,0.7
		c2.2,1.6,4.5,3,7,4.2s5.1,1.8,7.9,2v1.1h-6.7c-2.6-0.3-5.1-1-7.3-2.1s-4.5-2.7-6.7-4.7l-4.4-3.7l-1.1-0.7l-8.5,9.2l-5.4,5.4
		l-1.1,1.3L559.7,100.8z"/>
	<path class="st0" d="M637.1,102.1V101c1.2-3.1,2.2-6.4,3.1-9.7c0.9-3.4,1.8-6.6,2.8-9.7h-0.7c-2,0.6-4.1,1-6.2,1.4
		s-4.4,0.4-6.7,0.1l-0.2-1.3c2.6-0.3,5.2-0.8,7.7-1.5c2.5-0.7,4.9-1.4,7.4-2.1c0.9-2.4,1.8-4.9,2.6-7.3c0.8-2.4,1.3-5,1.6-7.8
		l-1.5-2.4l-1.1-0.5c-3.9,0.7-7.6,2.1-11.1,4.1c-3.4,2-7.2,2.8-11.5,2.4c-0.9,2.4-1.7,4.9-2.5,7.5c-0.8,2.5-1.3,5.1-1.7,7.8l0.7,0.3
		l6.3-0.3V83c-1.6,1.4-3.4,2.2-5.4,2.3s-4.2,0.2-6.3,0c-1.2-1.7-1.5-3.8-1.1-6.2c1.3-5.4,3-10.8,5.1-16c2.1-5.2,4.6-10.3,7.6-15.1
		h5.9v1.2c-1.5,2.6-2.8,5.2-4.1,7.8c-1.3,2.6-2.5,5.3-3.5,8h0.4c3.9-2.1,8.1-3.8,12.4-5.2c4.3-1.4,8.8-1.8,13.6-1.3l2.9,1.4
		c0.9,1.4,1.2,2.9,1.1,4.7c-0.3,2-0.7,3.9-1.3,5.8c-0.6,1.9-1.2,3.8-1.8,5.8h0.7l6.3-0.2v1.1l-8.3,2c-1.3,3.8-2.5,7.6-3.6,11.5
		s-2.2,7.7-3.4,11.5H637.1z"/>
	<path class="st0" d="M667.5,93.8l-3.1-1.1c-0.9-1.3-1.2-2.9-0.9-4.8c1.2-3,2.7-6,4.5-8.8c1.8-2.8,3.7-5.6,5.6-8.4l4.4-5.5l5-5.6
		c2.2-0.5,4.4-0.6,6.7-0.4v1.1l-0.9,0.8l-5.9,6.8c-2,2.3-3.9,4.8-5.7,7.4c-1.7,2.6-3.5,5.3-5.3,7.9c-1.5,2.2-2.2,4.6-2.4,7.4
		l1.7,1.8h2c5.1-1.2,10.1-2.5,15-4.1s9.8-2.9,14.7-4v-3.1l-0.5-11h5.9c0.3,3.1,0.5,6.3,0.5,9.5s0.5,6.3,1.5,9h0.7
		c2.8-1.7,6-2.3,9.8-1.8v1.2c-2,1.3-4.3,2.1-6.9,2.6c-2.5,0.5-5.2,0.5-8,0.2l-1.1-0.4c-0.9-1.2-1.4-2.4-1.6-3.7h-0.9
		c-4.4,1.3-8.7,2.6-13.1,3.9c-4.4,1.3-8.8,2.3-13.3,3.1H667.5z"/>
	<path class="st0" d="M749.5,100.3v-1.5c2-4.1,4.2-8.1,6.5-12c2.3-3.9,4.1-8.1,5.4-12.5l-0.9-1.5c-1-0.9-2.2-1.2-3.7-1.1
		c-5.7,0.9-11.2,2.3-16.5,4.3c-5.3,2-10.9,3-16.7,3v-1.1c4.8-1.3,9.6-2.7,14.3-4.1c4.7-1.5,9.6-2.5,14.5-3.3h11.1l2.7,0.8
		c1.2,1.5,1.5,3.2,1.1,5.2c-1.6,4.1-3.5,8.1-5.8,12c-2.3,3.9-4.4,7.9-6.3,11.8H749.5z M725.5,61.2v-1.1c4.9-1.2,9.9-2.2,14.7-3.1
		c4.9-0.9,9.9-1.6,14.9-2.1h9.2V56c-6.7,0.3-13.2,1.1-19.6,2.5C738.4,59.9,732,60.8,725.5,61.2z"/>
	<path class="st0" d="M799.8,99.4l-1.1-0.8c-0.7-2.9-1.1-5.9-1.1-9V79.1l0.5-3.7h-0.7c-4.5,3.5-8.9,7-13.1,10.5l-5,5l-6.3,0.2V90
		l0.6-0.2l0.7-1.3l1.1-1.1c4.5-4.1,8.9-7.8,13.3-11.2c6.3-4.1,12.5-8.2,18.8-12.3c6.3-4.2,13.1-6.7,20.5-7.5v1.1
		c-4.9,2.2-9.8,4.7-14.5,7.5c-4.7,2.8-9.4,5.9-14.1,9.1v0.4h4.8v1.8l-0.5,2.7V90c0,2.8,0.4,5.4,1.3,7.9l3.1,0.2v1.1L799.8,99.4z"/>
	<path class="st0" d="M837.1,104.2v-1.1c1.6-1,3.1-2.1,4.7-3.4c1.5-1.2,3-2.5,4.5-3.8c8.2-8.3,13.7-14.1,16.6-17.3
		c2.9-3.2,5.8-6.9,8.8-11.1l0.9-3.3l-0.7-1.8c-1.5-1-3.1-1.6-5-1.8c-5.8,0.5-11.3,2-16.6,4.5c-5.2,2.5-10.7,4-16.4,4.5v-1.1
		c5.7-3.1,11.7-5.5,18-7.2s12.7-2.4,19.4-1.9c2.4,0,4.4,0.6,6.1,1.8c1,1.1,1.5,2.5,1.3,4.1c-0.9,3.2-1.8,5.4-2.9,6.7
		c-1.1,1.3-2.6,3.1-4.6,5.4c-2,2.3-6.3,7-13,14.1l-8.3,7.8l-2.2,1.4l-0.5,0.6l-3.3,2.7L837.1,104.2z"/>
</g>
<g>
	
		<linearGradient id="SVGID_1_" gradientUnits="userSpaceOnUse" x1="16.9434" y1="155.2506" x2="35.0323" y2="155.2506" gradientTransform="matrix(0.9551 -0.2961 -0.2961 -0.9551 62.1166 228.8153)">
		<stop  offset="0" style="stop-color:#E943CC"/>
		<stop  offset="0.5225" style="stop-color:#EA691D"/>
		<stop  offset="1" style="stop-color:#7FFFA0"/>
	</linearGradient>
	<path class="st15" d="M35.3,85.1c5.3-1.2,9.1-4.3,11.2-7.5c2.1-3.1,3.9-8.5,0.8-13.6c-3.1-5-2.6-2.1-2.6-2.1s2.4,2.9,2.9,5.7
		c0.5,2.8,0.3,4.6-2,8.5c-2.1,3.4-3.3,4-6.4,6.3C36.9,84.3,35.3,85.1,35.3,85.1z"/>
	
		<linearGradient id="SVGID_2_" gradientUnits="userSpaceOnUse" x1="15.2688" y1="163.7464" x2="23.9306" y2="172.4083" gradientTransform="matrix(0.9383 -0.3459 -0.3459 -0.9383 75.6481 249.4853)">
		<stop  offset="0" style="stop-color:#E943CC"/>
		<stop  offset="0.5225" style="stop-color:#EA691D"/>
		<stop  offset="1" style="stop-color:#7FFFA0"/>
	</linearGradient>
	<circle class="st16" cx="35.9" cy="85" r="6.1"/>
	<circle class="st0" cx="33.3" cy="83.2" r="1.2"/>
	<g>
		<g>
			<path class="st17" d="M43.2,59.2c-0.1,0-0.1,0.1-0.1,0.2l1.6,2.7c0,0.1,0.1,0.1,0.2,0c0.1,0,0.1-0.1,0.1-0.2l-1.6-2.7
				C43.3,59.2,43.2,59.2,43.2,59.2z"/>
			<path class="st17" d="M43.4,59c-0.1,0-0.1,0.1-0.1,0.2L45,62c0,0.1,0.1,0.1,0.2,0.1c0.1,0,0.1-0.1,0.1-0.2l-1.6-2.7
				C43.6,59,43.5,59,43.4,59z"/>
			<path class="st17" d="M43.7,58.9c-0.1,0-0.1,0.1-0.1,0.2l1.6,2.7c0,0.1,0.1,0.1,0.2,0.1c0.1,0,0.1-0.1,0.1-0.2L43.9,59
				C43.8,58.9,43.8,58.9,43.7,58.9z"/>
			<path class="st17" d="M44,58.7c-0.1,0-0.1,0.1-0.1,0.2l1.6,2.7c0,0.1,0.1,0.1,0.2,0.1c0.1,0,0.1-0.1,0.1-0.2l-1.6-2.7
				C44.1,58.7,44,58.7,44,58.7z"/>
			<path class="st17" d="M56.1,51.2C56,51.1,56,51,55.9,50.9c-0.1-0.1-0.1-0.2-0.2-0.3c-0.1-0.1-0.1-0.1-0.2-0.2
				c-0.3-0.5-0.7-0.9-1.2-1.2c-0.3-0.2-0.6-0.3-0.9-0.4c-1-0.3-2.2,0-3.1,0.5c-0.1,0.1-0.2,0.1-0.3,0.2c-1.4,1-2.4,2.4-3.2,3.9
				c-0.9,1.7-1.6,3.5-2.4,5.2l0,0c-0.1,0-0.1,0.1-0.1,0.2l0.9,1.5c0,0,0,0,0,0.1l0.1,0.2c0,0,0,0,0,0.1l0.1,0.2c0,0,0,0,0,0.1
				l0.1,0.2c0,0,0,0,0,0.1l0.1,0.2c0,0,0,0,0,0.1l0.1,0.1c0,0.1,0.1,0.1,0.2,0.1l0,0c1.3,0.7,7,3.5,14.6,2.5c0.1,0,0.1-0.1,0.1-0.2
				S60.5,64,60.4,64c-4.2,0.5-7.9-0.1-10.5-0.9c-0.1,0-0.2-0.1-0.3-0.1c2.6,0.7,6.3,1.3,10.5,0.8c0.1,0,0.1-0.1,0.1-0.2
				c0-0.1-0.1-0.1-0.2-0.1c-4.2,0.6-7.8,0-10.4-0.8c-0.2,0-0.3-0.1-0.5-0.1c2.6,0.7,6.3,1.3,10.7,0.7c0.1,0,0.1-0.1,0.1-0.2
				c0-0.1-0.1-0.1-0.2-0.1c-4.2,0.6-7.8,0.1-10.3-0.6c-0.2-0.1-0.4-0.1-0.6-0.2c2.6,0.7,6.3,1.2,10.7,0.5c0.1,0,0.1-0.1,0.1-0.2
				c0-0.1-0.1-0.1-0.2-0.1c-4.2,0.7-7.8,0.2-10.3-0.4c-0.3-0.1-0.5-0.1-0.7-0.2c2.5,0.7,6.3,1.2,10.7,0.4c0.1,0,0.1-0.1,0.1-0.2
				c0-0.1-0.1-0.1-0.2-0.1c-4.2,0.7-7.7,0.3-10.2-0.3c-0.4-0.1-0.8-0.2-1.2-0.3h0.1c0.8-0.3,1.5-0.6,2-0.8c0.6-0.3,1.1-0.6,1.6-0.9
				c0.2-0.1,0.4-0.2,0.6-0.4c1.7-1.1,3.2-2.5,4.2-4.3c0.4-0.7,0.5-1.4,0.3-2.1c-0.1-0.3-0.2-0.6-0.3-0.9
				C56.3,51.5,56.2,51.3,56.1,51.2z M45,59.7c0.6-1.1,1.4-3,1.9-4.1c0.2-0.4,0.4-0.8,0.5-1.1c0.1-0.1,0.1-0.2,0.2-0.4
				c-0.2,0.5-0.5,1.1-0.8,1.7C46.4,56.7,45.6,58.6,45,59.7L45,59.7z M45.4,60.2C45.3,60.2,45.3,60.2,45.4,60.2L45.4,60.2L45.2,60
				c0.6-1.1,1.5-3.1,2-4.1c0.5-1.1,0.8-2,1.3-2.9s1.1-1.6,2.1-2.3c0.1-0.1,0.2-0.1,0.3-0.2c0.9-0.5,1.9-0.7,2.8-0.4
				c0.6,0.2,1.3,0.5,1.8,1c0.2,0.4,0.3,0.8,0.3,1.3c0,1.1-0.7,2.1-1.5,2.9c-0.5,0.5-1.1,1.1-1.7,1.5c-0.5,0.4-1.1,0.8-1.7,1.1
				c-1.3,0.7-2.7,1.3-4.1,1.9C46.4,59.9,45.9,60.1,45.4,60.2z M45.9,60.4C45.8,60.4,45.8,60.4,45.9,60.4c0.4-0.1,0.8-0.3,1.2-0.4
				c1.4-0.6,2.8-1.1,4.1-1.9c0.6-0.3,1.2-0.7,1.7-1.1c0.6-0.5,1.2-1,1.7-1.5c0.2-0.2,0.4-0.5,0.6-0.7c-0.3,0.4-0.6,0.7-0.9,1.1
				c-0.5,0.5-1.1,1-1.7,1.5c-0.5,0.4-1,0.7-1.5,1c-0.3,0.2-0.7,0.4-1,0.5c-0.9,0.5-2,0.9-3,1.3C46.6,60.2,46.2,60.3,45.9,60.4z
				 M47.2,54.3c-0.2,0.4-0.3,0.7-0.5,1.1c-0.5,1.1-1.3,2.9-1.9,4l0,0c0.6-1.2,1.4-2.9,1.9-4.1C46.9,54.9,47.1,54.5,47.2,54.3
				c0.1-0.3,0.2-0.5,0.3-0.7C47.5,53.8,47.4,54,47.2,54.3z M46.3,60.6c0.3-0.1,0.6-0.2,0.8-0.3c1-0.4,2.1-0.8,3.1-1.3
				c0.3-0.2,0.7-0.4,1-0.5c0.5-0.3,1-0.6,1.5-1c0.6-0.5,1.2-1,1.7-1.5c0.3-0.3,0.6-0.6,0.9-1c-0.3,0.5-0.7,0.9-1.1,1.4
				c-0.6,0.5-1.1,1-1.8,1.5c-0.4,0.3-0.8,0.5-1.2,0.8c-0.4,0.2-0.8,0.4-1.1,0.6c-0.8,0.4-1.9,0.9-2.9,1.2
				C46.8,60.5,46.6,60.6,46.3,60.6L46.3,60.6z M47.1,54c-0.2,0.4-0.4,0.7-0.5,1.1c-0.6,1.2-1.2,2.8-1.9,4l0,0
				c0.7-1.3,1.3-2.9,1.9-4.1C46.8,54.6,47,54.3,47.1,54c0.1-0.4,0.3-0.6,0.4-0.8C47.4,53.4,47.2,53.7,47.1,54z M46.9,60.8L46.9,60.8
				c0,0,0.2-0.1,0.3-0.1c1-0.3,2.1-0.8,3-1.2c0.4-0.2,0.8-0.4,1.2-0.6c0.4-0.2,0.9-0.5,1.3-0.8c0.6-0.5,1.2-1,1.8-1.5
				c0.7-0.7,1.4-1.6,1.8-2.5v0.1c-0.4,1.1-1.2,2-2,2.8c-0.6,0.5-1.2,1-1.8,1.5c-0.3,0.2-0.6,0.4-0.9,0.6c-0.4,0.3-0.9,0.5-1.4,0.7
				c-0.8,0.4-1.8,0.8-2.8,1.1C47.1,60.8,47,60.8,46.9,60.8z M46.9,53.5c0.2-0.3,0.3-0.6,0.5-0.9c-0.2,0.3-0.4,0.7-0.6,1.1
				c-0.2,0.4-0.4,0.7-0.5,1.1c-0.6,1.2-1.2,2.7-1.9,4l0,0C45.4,57,46,55.2,46.9,53.5z M47.6,52.5L47.6,52.5L47.6,52.5z M56.2,54.6
				c-0.9,1.8-2.4,3.2-4.1,4.2c-0.2,0.1-0.4,0.2-0.6,0.3c-0.5,0.3-1.1,0.6-1.6,0.9c-0.5,0.2-1.2,0.6-2,0.8c-0.2,0.1-0.3,0.1-0.5,0.1
				h-0.1c1-0.3,2-0.7,2.8-1.1c0.5-0.2,0.9-0.5,1.4-0.7c0.3-0.2,0.6-0.4,1-0.6c0.7-0.4,1.3-0.9,1.9-1.5c0.9-0.8,1.6-1.8,2.1-2.9
				c0.1-0.2,0.1-0.4,0.2-0.5C56.5,54,56.4,54.3,56.2,54.6z"/>
			<path class="st17" d="M44.6,62l-0.1-0.2v-0.1l-0.1-0.2v-0.1l-0.1-0.2v-0.1L44,61v-0.1l-0.9-1.5c0-0.1-0.1-0.1-0.2-0.1l0,0
				c-1.9-0.1-3.8-0.4-5.7-0.5c-1.7-0.1-3.4,0.1-5,0.8c-0.1,0.1-0.2,0.1-0.3,0.2c-0.9,0.5-1.7,1.3-2,2.4c-0.1,0.3-0.1,0.7-0.1,1
				c0,0.5,0.2,1.1,0.4,1.6c0,0.1,0.1,0.2,0.1,0.2c0,0.1,0.1,0.2,0.1,0.3c0,0.1,0.1,0.2,0.1,0.3c0.1,0.2,0.1,0.4,0.3,0.6
				c0.2,0.3,0.4,0.5,0.6,0.7c0.6,0.5,1.2,0.8,2,0.8c2,0.1,4-0.5,5.8-1.4c0.2-0.1,0.4-0.2,0.6-0.3c0.5-0.3,1.1-0.6,1.6-1
				c0.5-0.3,1.1-0.8,1.7-1.3c0,0,0,0,0.1-0.1c-0.6,2.5-2,6.3-5.2,10.1c0,0.1,0,0.1,0,0.2c0.1,0,0.1,0,0.2,0c3-3.5,4.4-7,5.1-9.5
				c-0.6,2.6-2,6.2-5,9.8c0,0.1,0,0.1,0,0.2c0.1,0,0.1,0,0.2,0c2.9-3.5,4.3-6.9,5-9.5c-0.6,2.6-2,6.3-4.9,9.8c0,0.1,0,0.1,0,0.2
				c0.1,0,0.1,0,0.2,0c2.8-3.4,4.1-6.9,4.8-9.5c-0.6,2.6-1.9,6.3-4.7,9.9c0,0.1,0,0.1,0,0.2c0.1,0,0.1,0,0.2,0
				c2.6-3.4,4-6.8,4.7-9.5c-0.6,2.7-1.9,6.3-4.6,9.8c0,0.1,0,0.1,0,0.2c0.1,0,0.1,0,0.2,0c4.6-6,5.1-12.4,5.2-13.8l0,0
				C44.7,62.2,44.7,62.1,44.6,62L44.6,62L44.6,62z M43.3,63c-0.8,0.7-1.7,1.4-2.4,1.9c-0.4,0.3-0.9,0.6-1.3,0.8
				c-0.3,0.2-0.6,0.4-1,0.5c-0.7,0.3-1.4,0.6-2.2,0.8c-1.1,0.3-2.3,0.5-3.5,0.3h-0.1c1,0.2,2.1,0.1,3.1-0.2c0.8-0.2,1.5-0.5,2.2-0.8
				c0.5-0.2,0.9-0.4,1.3-0.7c0.4-0.2,0.8-0.5,1.1-0.7C41.5,64.3,42.4,63.6,43.3,63c0-0.1,0.1-0.2,0.2-0.3v0.1
				C43.4,62.8,43.3,62.9,43.3,63z M31.6,66.2c-0.4-0.2-0.7-0.5-0.9-0.9c-0.1-0.7-0.1-1.4,0.1-2.1c0.2-0.9,0.9-1.7,1.8-2.2
				c0.1-0.1,0.2-0.1,0.3-0.2c1.1-0.6,2.1-0.7,3.1-0.7s2,0.2,3.1,0.3s3.4,0.4,4.6,0.4l0.1,0.1l0,0V61c-0.4,0.4-0.8,0.7-1.2,1.1
				c-1.2,0.9-2.4,1.8-3.7,2.6c-0.6,0.3-1.2,0.6-1.8,0.9c-0.7,0.3-1.4,0.5-2.2,0.7C33.8,66.6,32.6,66.7,31.6,66.2z M43.5,60.6
				c-1.2-0.1-3.3-0.3-4.4-0.4c-0.7-0.1-1.3-0.1-1.8-0.2c0.1,0,0.3,0,0.4,0c0.4,0,0.8,0.1,1.3,0.1C40.1,60.3,42.2,60.5,43.5,60.6
				L43.5,60.6z M34.9,66.6c0.7-0.2,1.5-0.4,2.2-0.7c0.6-0.2,1.2-0.5,1.8-0.9c1.3-0.8,2.5-1.7,3.7-2.6c0.3-0.3,0.7-0.5,1-0.8
				c0,0,0,0,0,0.1c-0.3,0.3-0.6,0.6-0.9,0.8c-0.8,0.7-1.8,1.4-2.7,2c-0.3,0.2-0.6,0.4-1,0.6c-0.5,0.3-1,0.6-1.6,0.8
				c-0.7,0.3-1.4,0.5-2.2,0.7c-0.4,0.1-0.9,0.2-1.4,0.2C34.3,66.8,34.6,66.7,34.9,66.6z M43.3,60.3c-1.3-0.1-3.2-0.3-4.4-0.4
				c-0.4,0-0.8-0.1-1.2-0.1c-0.3,0-0.6-0.1-0.9-0.1c0.2,0,0.4,0,0.7,0c0.4,0,0.8,0.1,1.2,0.1C40,60,41.9,60.2,43.3,60.3L43.3,60.3z
				 M35.5,66.8c0.7-0.2,1.5-0.4,2.2-0.7c0.5-0.2,1.1-0.5,1.6-0.8c0.3-0.2,0.7-0.4,1-0.6c0.9-0.6,1.8-1.3,2.7-2
				c0.2-0.2,0.4-0.4,0.7-0.6v0.1c-0.2,0.2-0.4,0.4-0.6,0.5c-0.8,0.7-1.7,1.4-2.5,1.9c-0.4,0.2-0.7,0.5-1.1,0.7
				c-0.4,0.2-0.9,0.5-1.3,0.7c-0.7,0.3-1.4,0.6-2.2,0.8c-0.6,0.2-1.2,0.3-1.7,0.3C34.6,67,35,66.9,35.5,66.8z M43.1,60
				c-1.3-0.1-3.1-0.3-4.4-0.4c-0.4,0-0.8-0.1-1.2-0.1c-0.3,0-0.7,0-1-0.1c0.3,0,0.6,0,0.8,0c0.4,0,0.8,0.1,1.2,0.1
				C40,59.7,41.7,59.9,43.1,60L43.1,60z M42.9,59.6L42.9,59.6c-1.4,0-3-0.3-4.3-0.4c-0.4,0-0.8-0.1-1.2-0.1s-0.8,0-1.2,0
				c0.3,0,0.7,0,1,0C39.1,59.2,41,59.6,42.9,59.6z M35.9,59.1L35.9,59.1L35.9,59.1z M43,63.7c-0.6,0.5-1.2,1-1.7,1.3s-1,0.7-1.6,1
				c-0.2,0.1-0.4,0.2-0.6,0.3c-1.8,0.9-3.7,1.5-5.7,1.4c-0.4,0-0.7-0.1-1-0.2c0.2,0.1,0.4,0.1,0.5,0.1c1.2,0.2,2.4,0,3.6-0.3
				c0.8-0.2,1.5-0.5,2.2-0.9c0.3-0.2,0.7-0.3,1-0.5c0.4-0.3,0.9-0.5,1.3-0.8c0.7-0.5,1.6-1.1,2.3-1.8v0.1
				C43.2,63.5,43.1,63.6,43,63.7z"/>
		</g>
	</g>
</g>
<g>
	
		<linearGradient id="SVGID_3_" gradientUnits="userSpaceOnUse" x1="735.278" y1="62.3366" x2="754.324" y2="62.3366" gradientTransform="matrix(-0.9993 -3.629904e-02 3.629904e-02 -0.9993 905.35 157.4219)">
		<stop  offset="0" style="stop-color:#E943CC"/>
		<stop  offset="0.5225" style="stop-color:#EA691D"/>
		<stop  offset="1" style="stop-color:#7FFFA0"/>
	</linearGradient>
	<path class="st18" d="M172.5,79c-5.7,0.2-10.4-1.8-13.5-4.5c-3-2.6-6.3-7.6-4.6-13.6s2.1-2.9,2.1-2.9s-1.7,3.6-1.4,6.6
		s0.9,4.8,4.3,8.1c3.1,2.9,4.5,3.1,8.3,4.7C170.7,78.6,172.5,79,172.5,79z"/>
	
		<linearGradient id="SVGID_4_" gradientUnits="userSpaceOnUse" x1="729.3605" y1="35.0227" x2="737.2388" y2="42.901" gradientTransform="matrix(-0.9961 -8.877387e-02 8.877387e-02 -0.9961 897.6869 180.9148)">
		<stop  offset="0" style="stop-color:#E943CC"/>
		<stop  offset="0.5225" style="stop-color:#EA691D"/>
		<stop  offset="1" style="stop-color:#7FFFA0"/>
	</linearGradient>
	<circle class="st19" cx="170.7" cy="77" r="5.6"/>
	<circle class="st0" cx="172.6" cy="74.8" r="1.1"/>
	<g>
		<g>
			<path class="st17" d="M155.9,54.9c0.1,0,0.1,0,0.1,0.1l0.6,2.8c0,0.1,0,0.1-0.1,0.1s-0.1,0-0.1-0.1l-0.6-2.8
				C155.7,55,155.8,54.9,155.9,54.9z"/>
			<path class="st17" d="M155.6,55c0.1,0,0.1,0,0.1,0.1l0.6,2.8c0,0.1,0,0.1-0.1,0.1s-0.1,0-0.1-0.1l-0.6-2.8
				C155.5,55.1,155.5,55,155.6,55z"/>
			<path class="st17" d="M155.3,55.1c0.1,0,0.1,0,0.1,0.1L156,58c0,0.1,0,0.1-0.1,0.1s-0.1,0-0.1-0.1l-0.6-2.8
				C155.2,55.1,155.2,55.1,155.3,55.1z"/>
			<path class="st17" d="M155,55.1c0.1,0,0.1,0,0.1,0.1l0.6,2.8c0,0.1,0,0.1-0.1,0.1s-0.1,0-0.1-0.1l-0.6-2.8
				C154.9,55.2,155,55.1,155,55.1z"/>
			<path class="st17" d="M142.4,57.5c0-0.1,0-0.2,0-0.3s0-0.2,0-0.3s0-0.2,0-0.2c-0.1-0.5,0-1,0.1-1.5c0.1-0.3,0.2-0.6,0.4-0.9
				c0.5-0.8,1.4-1.3,2.3-1.5c0.1,0,0.2,0,0.3-0.1c1.5-0.3,3.1,0.1,4.5,0.6c1.6,0.6,3.2,1.4,4.8,1.9l0,0c0.1,0,0.1,0,0.1,0.1l0.3,1.5
				c0,0,0,0,0,0.1v0.2c0,0,0,0,0,0.1v0.2c0,0,0,0,0,0.1v0.2c0,0,0,0,0,0.1V58c0,0,0,0,0,0.1v0.1c0,0.1,0,0.1-0.1,0.1l0,0
				c-0.4,1.2-2.6,6.6-8.1,10.6c-0.1,0-0.1,0-0.2,0c0-0.1,0-0.1,0-0.2c3.1-2.2,5.1-4.9,6.4-7.1c0-0.1,0.1-0.2,0.1-0.2
				c-1.3,2.1-3.3,4.7-6.5,7c-0.1,0-0.1,0-0.2,0c0-0.1,0-0.1,0-0.2c3.1-2.2,5.2-4.8,6.4-6.9c0.1-0.1,0.2-0.3,0.2-0.4
				c-1.3,2.1-3.4,4.7-6.7,7c-0.1,0-0.1,0-0.2,0c0-0.1,0-0.1,0-0.2c3.2-2.2,5.2-4.7,6.5-6.7c0.1-0.2,0.2-0.3,0.3-0.5
				c-1.3,2-3.4,4.7-6.8,6.9c-0.1,0-0.1,0-0.2,0c0-0.1,0-0.1,0-0.2c3.2-2.1,5.3-4.6,6.5-6.6c0.1-0.2,0.3-0.4,0.4-0.6
				c-1.3,2-3.4,4.6-6.9,6.9c-0.1,0-0.1,0-0.2,0c0-0.1,0-0.1,0-0.2c3.2-2.1,5.3-4.5,6.6-6.4c0.2-0.3,0.4-0.6,0.6-0.9H153
				c-0.7,0.3-1.3,0.5-1.8,0.7s-1.1,0.3-1.6,0.4c-0.2,0-0.4,0.1-0.6,0.1c-1.8,0.3-3.7,0.3-5.4-0.3c-0.7-0.2-1.1-0.6-1.5-1.2
				c-0.2-0.3-0.3-0.5-0.3-0.8C142.4,57.9,142.4,57.7,142.4,57.5z M154.9,56.4c-1.1-0.4-2.8-1.1-3.8-1.6c-0.4-0.1-0.7-0.3-1.1-0.4
				c-0.1,0-0.2-0.1-0.3-0.1c0.5,0.2,1,0.4,1.5,0.7C152.2,55.3,153.9,56,154.9,56.4L154.9,56.4z M155,57C155,56.9,155,56.9,155,57
				L155,57v-0.2c-1-0.4-2.9-1.2-3.8-1.5c-1-0.4-1.8-0.8-2.6-1.1s-1.7-0.4-2.8-0.2c-0.1,0-0.2,0-0.3,0.1c-0.9,0.2-1.7,0.7-2.1,1.4
				c-0.3,0.5-0.5,1.2-0.6,1.8c0.1,0.4,0.3,0.7,0.6,1c0.7,0.7,1.7,1,2.8,1c0.7,0,1.4,0,2,0s1.2-0.1,1.8-0.3c1.3-0.3,2.6-0.8,3.9-1.3
				C154.1,57.4,154.6,57.2,155,57z M154.8,57.4L154.8,57.4c-0.3,0.1-0.7,0.3-1.1,0.4c-1.2,0.5-2.6,1-3.9,1.3
				c-0.6,0.1-1.2,0.2-1.8,0.3c-0.7,0.1-1.4,0.1-2.1,0c-0.3,0-0.6,0-0.8-0.1c0.4,0.1,0.8,0.1,1.2,0.2c0.7,0,1.4,0,2.1-0.1
				c0.5-0.1,1-0.1,1.6-0.3c0.3-0.1,0.7-0.2,1-0.3c0.9-0.3,1.9-0.6,2.8-1C154.2,57.7,154.5,57.6,154.8,57.4z M150.1,54.2
				c0.3,0.1,0.7,0.3,1,0.4c1,0.4,2.6,1.1,3.7,1.5l0,0c-1.2-0.4-2.7-1.1-3.8-1.6c-0.4-0.1-0.7-0.3-1-0.4c-0.2-0.1-0.4-0.1-0.6-0.2
				C149.7,54,149.9,54.1,150.1,54.2z M154.6,57.8c-0.2,0.1-0.5,0.2-0.7,0.3c-0.9,0.4-1.9,0.8-2.8,1c-0.3,0.1-0.7,0.2-1,0.3
				c-0.5,0.1-1.1,0.2-1.6,0.3c-0.7,0.1-1.4,0.1-2.1,0.1c-0.4,0-0.8-0.1-1.2-0.1c0.5,0.1,1.1,0.2,1.6,0.2c0.7,0,1.4,0,2.1-0.1
				c0.4-0.1,0.9-0.1,1.3-0.2c0.4-0.1,0.8-0.2,1.1-0.3c0.8-0.2,1.8-0.6,2.7-1C154.2,58,154.4,57.9,154.6,57.8L154.6,57.8z
				 M150.1,53.9c0.3,0.1,0.7,0.3,1,0.4c1.1,0.4,2.5,1.1,3.7,1.5l0,0c-1.2-0.4-2.6-1.1-3.8-1.6c-0.3-0.1-0.7-0.3-1-0.4
				c-0.2-0.1-0.5-0.2-0.7-0.2C149.5,53.7,149.8,53.8,150.1,53.9z M154.4,58.3C154.4,58.3,154.4,58.2,154.4,58.3
				c-0.1,0-0.2,0-0.3,0.1c-0.9,0.4-1.9,0.8-2.7,1c-0.4,0.1-0.8,0.2-1.2,0.3s-0.9,0.2-1.3,0.2c-0.7,0.1-1.4,0.1-2.1,0.1
				c-0.9,0-1.9-0.2-2.7-0.6c0,0,0,0,0.1,0c0.9,0.4,2,0.6,3.1,0.6c0.7,0,1.4,0,2.1-0.2c0.3-0.1,0.7-0.1,1-0.2
				c0.4-0.1,0.9-0.2,1.3-0.4c0.7-0.2,1.7-0.6,2.5-1C154.2,58.4,154.3,58.3,154.4,58.3z M149.9,53.5c-0.3-0.1-0.6-0.2-0.9-0.3
				c0.3,0.1,0.7,0.2,1,0.3s0.7,0.3,1,0.4c1.2,0.5,2.5,1.1,3.7,1.5l0,0C153.1,54.9,151.5,54.1,149.9,53.5z M148.8,53.2L148.8,53.2
				L148.8,53.2z M144.4,59.9c1.7,0.6,3.5,0.6,5.3,0.3c0.2,0,0.4-0.1,0.6-0.1c0.5-0.1,1.1-0.3,1.6-0.4c0.5-0.1,1.2-0.4,1.8-0.7
				c0.1-0.1,0.3-0.1,0.4-0.2c0,0,0-0.1,0.1-0.1c-0.8,0.4-1.8,0.7-2.5,1c-0.4,0.1-0.9,0.3-1.4,0.4c-0.3,0.1-0.7,0.1-1,0.2
				c-0.7,0.1-1.4,0.2-2.1,0.2c-1.1,0-2.2-0.2-3.2-0.7c-0.2-0.1-0.3-0.2-0.4-0.3C143.8,59.6,144.1,59.8,144.4,59.9z"/>
			<path class="st17" d="M156.6,57.6v-0.2c0,0,0,0,0-0.1v-0.2c0,0,0,0,0-0.1v-0.2c0,0,0,0,0-0.1v-0.2c0,0,0,0,0-0.1L156,55
				c0-0.1,0-0.1,0.1-0.1l0,0c1.2-1.2,2.2-2.6,3.5-3.8c1.1-1.1,2.3-2.1,3.8-2.5c0.1,0,0.2-0.1,0.3-0.1c0.9-0.2,2-0.2,2.8,0.4
				c0.3,0.2,0.5,0.4,0.7,0.6c0.3,0.4,0.6,0.8,0.7,1.3c0,0.1,0.1,0.2,0.1,0.2c0,0.1,0.1,0.2,0.1,0.3s0.1,0.2,0.1,0.3
				c0.1,0.2,0.2,0.4,0.2,0.5c0.1,0.3,0.1,0.6,0,0.9c-0.1,0.7-0.4,1.3-0.8,1.8c-1.3,1.3-3,2.2-4.7,2.7c-0.2,0.1-0.4,0.1-0.6,0.2
				c-0.5,0.1-1.1,0.2-1.6,0.3s-1.2,0.2-2,0.2h-0.1c1.9,1.3,5.2,2.9,9.7,3.5c0.1,0,0.1,0.1,0.1,0.1c0,0.1-0.1,0.1-0.1,0.1
				c-4.1-0.5-7.2-1.9-9.2-3.2c2,1.3,5.2,2.9,9.4,3.4c0.1,0,0.1,0.1,0.1,0.1c0,0.1-0.1,0.1-0.1,0.1c-4-0.5-7.1-2-9.1-3.3
				c2,1.3,5.2,2.9,9.3,3.5c0.1,0,0.1,0.1,0.1,0.1c0,0.1-0.1,0.1-0.1,0.1c-3.9-0.6-7-2.1-9-3.4c2,1.4,5.2,3,9.2,3.6
				c0.1,0,0.1,0.1,0.1,0.1c0,0.1-0.1,0.1-0.1,0.1c-3.8-0.6-6.8-2.1-8.9-3.4c2.1,1.4,5.1,3,9.1,3.7c0.1,0,0.1,0.1,0.1,0.1
				c0,0.1-0.1,0.1-0.1,0.1c-6.8-1.2-11-5.1-12-6l0,0c-0.1,0-0.1,0-0.1-0.1L156.6,57.6C156.6,57.7,156.6,57.6,156.6,57.6z
				 M158.1,57.5c0.9,0,2-0.1,2.7-0.2c0.5-0.1,0.9-0.2,1.4-0.3c0.3-0.1,0.7-0.2,1-0.3c0.7-0.2,1.3-0.5,2-0.8c0.9-0.5,1.8-1.1,2.5-1.9
				c0,0,0,0,0-0.1c-0.6,0.7-1.4,1.3-2.2,1.7c-0.6,0.3-1.3,0.6-2,0.8c-0.4,0.1-0.9,0.3-1.3,0.4c-0.4,0.1-0.8,0.2-1.2,0.2
				C160.1,57.3,159.1,57.4,158.1,57.5c-0.1-0.1-0.2-0.1-0.3-0.1c0,0,0.1,0,0.1,0.1C157.9,57.5,158,57.5,158.1,57.5z M167.8,52.5
				c0.1-0.4,0.1-0.8,0.1-1.2c-0.3-0.5-0.8-1-1.3-1.3c-0.7-0.5-1.6-0.6-2.5-0.4c-0.1,0-0.2,0.1-0.3,0.1c-1.1,0.3-1.8,0.8-2.4,1.5
				c-0.6,0.6-1.2,1.4-1.9,2.1c-0.7,0.8-2,2.3-2.8,3.1v0.1l0,0l0.1,0.1c0.5,0,1,0,1.5,0c1.3-0.1,2.7-0.3,4-0.6
				c0.6-0.1,1.2-0.3,1.7-0.5c0.6-0.2,1.2-0.5,1.8-0.9C166.7,54.1,167.5,53.4,167.8,52.5z M156.5,56.1c0.8-0.8,2-2.2,2.7-3
				c0.4-0.4,0.7-0.9,1.1-1.3c-0.1,0.1-0.2,0.2-0.2,0.3c-0.2,0.3-0.5,0.6-0.8,0.8C158.5,53.8,157.3,55.2,156.5,56.1L156.5,56.1z
				 M165.9,54.8c-0.6,0.3-1.2,0.6-1.9,0.9c-0.6,0.2-1.2,0.4-1.8,0.5c-1.3,0.3-2.7,0.4-4.1,0.6c-0.4,0-0.8,0.1-1.2,0l0,0
				c0.4,0,0.7,0,1.1,0c1-0.1,2-0.2,3-0.3c0.3-0.1,0.7-0.1,1-0.2c0.5-0.1,1-0.3,1.5-0.4c0.6-0.2,1.3-0.5,1.9-0.8
				c0.4-0.2,0.7-0.4,1-0.7C166.4,54.5,166.1,54.7,165.9,54.8z M156.4,55.7c0.8-0.8,1.9-2.2,2.7-3c0.3-0.3,0.5-0.6,0.8-0.8
				c0.2-0.2,0.3-0.4,0.5-0.6c-0.1,0.1-0.3,0.3-0.4,0.4c-0.2,0.3-0.5,0.5-0.8,0.8C158.4,53.5,157.3,54.8,156.4,55.7L156.4,55.7z
				 M165.7,55.3c-0.6,0.3-1.3,0.6-1.9,0.9c-0.5,0.2-1,0.3-1.6,0.5c-0.3,0.1-0.7,0.1-1,0.2c-0.9,0.2-2,0.3-3,0.3c-0.3,0-0.5,0-0.8,0
				c0,0,0,0,0.1,0c0.2,0,0.5,0,0.7,0c1,0,2-0.1,2.8-0.3c0.4-0.1,0.8-0.1,1.2-0.2c0.4-0.1,0.9-0.2,1.3-0.4c0.7-0.2,1.3-0.5,1.9-0.8
				c0.5-0.2,0.9-0.5,1.3-0.9C166.3,54.9,166,55.1,165.7,55.3z M156.4,55.4c0.8-0.9,1.9-2.1,2.6-3c0.3-0.3,0.5-0.6,0.8-0.8
				c0.2-0.2,0.4-0.5,0.6-0.7c-0.2,0.2-0.4,0.4-0.5,0.5c-0.3,0.3-0.5,0.5-0.8,0.8C158.3,53.3,157.3,54.5,156.4,55.4L156.4,55.4z
				 M156.3,55.1L156.3,55.1c0.9-0.9,1.8-2,2.6-2.9c0.3-0.3,0.5-0.5,0.8-0.8s0.5-0.5,0.8-0.8c-0.2,0.2-0.5,0.4-0.7,0.6
				C158.6,52.4,157.5,53.8,156.3,55.1z M160.6,50.4L160.6,50.4L160.6,50.4z M158.7,57.8c0.7,0,1.4-0.1,1.9-0.2
				c0.5-0.1,1.1-0.2,1.6-0.3c0.2,0,0.4-0.1,0.6-0.1c1.7-0.5,3.4-1.3,4.6-2.6c0.2-0.2,0.4-0.5,0.5-0.8c-0.1,0.1-0.2,0.3-0.3,0.4
				c-0.7,0.8-1.6,1.5-2.6,2c-0.6,0.3-1.3,0.6-2,0.8c-0.3,0.1-0.7,0.2-1,0.3c-0.5,0.1-0.9,0.2-1.4,0.3c-0.7,0.1-1.7,0.2-2.7,0.2
				l0.1,0.1C158.4,57.8,158.6,57.8,158.7,57.8z"/>
		</g>
	</g>
</g>
</svg>
